<svg width="50" height="50" viewBox="0 0 50 50" fill="none" xmlns="http://www.w3.org/2000/svg">
<path d="M38.3331 2.49464V22.4959C38.1144 22.4959 37.8979 22.539 37.6959 22.6228C37.494 22.7066 37.3105 22.8294 37.156 22.9841C37.0015 23.1389 36.8791 23.3226 36.7957 23.5247C36.7123 23.7269 36.6696 23.9435 36.67 24.1621L36.6669 31.6681H3.33564C1.47096 31.6681 0 33.1706 0 35.0038V43.3318C0 45.165 1.47726 46.6675 3.33564 46.6675H4.16719V49.1653C4.16404 49.6252 4.53887 50.0031 5.00189 50H10.8385C11.2983 50 11.6732 49.622 11.67 49.1653V46.6675H38.3363V49.1653C38.3363 49.6283 38.7111 50.0031 39.1741 50H45.0044C45.1143 50.0004 45.2232 49.9791 45.3248 49.9374C45.4264 49.8956 45.5188 49.8342 45.5967 49.7566C45.6745 49.6791 45.7363 49.5869 45.7784 49.4854C45.8205 49.384 45.8422 49.2752 45.8422 49.1653V46.6675H46.6738C48.5385 46.6675 50.0063 45.165 50.0063 43.3318V35.0038C50.0063 33.1706 48.5385 31.665 46.6738 31.665H45.0044V24.1653C45.0036 23.7245 44.8281 23.3019 44.5164 22.9902C44.2047 22.6785 43.7821 22.503 43.3413 22.5022L43.3381 2.50094C43.3381 1.83765 43.0747 1.20153 42.6056 0.732509C42.1366 0.263491 41.5005 0 40.8372 0C40.1739 0 39.5378 0.263491 39.0688 0.732509C38.5998 1.20153 38.3363 1.83765 38.3363 2.50094L38.3331 2.49464ZM40.8372 1.66625C41.2908 1.66625 41.6688 2.01902 41.6688 2.49464V22.4959H40.0025V2.49464C40.0025 2.02217 40.3836 1.66625 40.8372 1.66625ZM17.1381 9.41791C14.3027 9.4223 11.4964 9.98978 8.88208 11.0874C6.26776 12.1851 3.89748 13.791 1.90878 15.812C1.09613 16.5711 2.3466 17.809 3.09626 16.9806C4.92965 15.1181 7.11475 13.6383 9.5247 12.6272C11.9347 11.6161 14.5215 11.0937 17.1349 11.0905C22.4014 11.0905 27.4537 13.2103 31.1799 16.9806C31.9359 17.8121 33.1706 16.5648 32.3642 15.812C30.3753 13.7924 28.0054 12.1875 25.3917 11.0904C22.778 9.9934 19.9726 9.42283 17.1381 9.41791ZM17.1381 14.6623C14.9852 14.6641 12.8542 15.0935 10.8687 15.9256C8.88315 16.7578 7.08275 17.9761 5.572 19.5099C4.70896 20.2406 6.05077 21.5195 6.75318 20.6753C8.10981 19.2984 9.72637 18.2045 11.5091 17.4573C13.2918 16.71 15.2051 16.3242 17.1381 16.3223C21.0312 16.3223 24.7638 17.8877 27.523 20.6785C28.2852 21.4848 29.5011 20.2847 28.7105 19.5099C27.1985 17.9758 25.397 16.7571 23.4105 15.9244C21.424 15.0918 19.292 14.6649 17.1381 14.6623ZM17.1381 19.8973C14.1678 19.8973 11.3298 21.0848 9.23207 23.2046C8.42257 23.9511 9.65415 25.2079 10.4133 24.3795C11.2923 23.4886 12.3396 22.7812 13.4943 22.2983C14.649 21.8155 15.8881 21.5668 17.1397 21.5668C18.3912 21.5668 19.6303 21.8155 20.785 22.2983C21.9397 22.7812 22.987 23.4886 23.8661 24.3795C24.6409 25.1984 25.8504 23.9763 25.0535 23.2046C24.0185 22.1572 22.7859 21.3255 21.4272 20.7578C20.0685 20.1901 18.6106 19.8976 17.1381 19.8973ZM38.3363 24.1653H43.335V31.6681H38.3331L38.3363 24.1653ZM17.1349 25.1354C15.538 25.1354 14.0103 25.7748 12.8827 26.9119C12.0637 27.7057 13.2859 28.9152 14.0702 28.0868C14.4703 27.6797 14.9476 27.3563 15.474 27.1356C16.0005 26.9148 16.5656 26.8011 17.1365 26.8011C17.7074 26.8011 18.2725 26.9148 18.799 27.1356C19.3254 27.3563 19.8027 27.6797 20.2028 28.0868C20.9871 28.9057 22.1998 27.6994 21.384 26.9119C20.8279 26.3493 20.1658 25.9027 19.4359 25.5977C18.706 25.2928 17.926 25.1357 17.1349 25.1354ZM3.33564 33.3375H46.6706C47.6093 33.3375 48.3369 34.0777 48.3369 35.0038V43.3318C48.3369 44.2705 47.5841 45.0012 46.6675 45.0012H3.33879C3.11898 45.0034 2.90095 44.9616 2.69746 44.8785C2.49397 44.7953 2.3091 44.6724 2.15366 44.517C1.99822 44.3615 1.87534 44.1767 1.79219 43.9732C1.70904 43.7697 1.66729 43.5517 1.6694 43.3318V35.0038C1.6694 34.0777 2.40015 33.3344 3.33879 33.3344L3.33564 33.3375ZM7.49653 35.0038C6.83408 35.0038 6.19875 35.2669 5.73032 35.7354C5.2619 36.2038 4.99874 36.8391 4.99874 37.5016C4.99874 38.164 5.2619 38.7993 5.73032 39.2678C6.19875 39.7362 6.83408 39.9994 7.49653 39.9994C7.8351 40.0164 8.17359 39.9644 8.49144 39.8465C8.80929 39.7287 9.09987 39.5474 9.34551 39.3138C9.59116 39.0802 9.78674 38.7991 9.92039 38.4875C10.054 38.176 10.123 37.8406 10.123 37.5016C10.123 37.1626 10.054 36.8271 9.92039 36.5156C9.78674 36.204 9.59116 35.9229 9.34551 35.6893C9.09987 35.4557 8.80929 35.2745 8.49144 35.1566C8.17359 35.0388 7.8351 34.9868 7.49653 35.0038ZM14.1741 35.0038C12.7693 35.0038 11.6669 36.1282 11.6669 37.4984C11.6669 38.8686 12.7851 39.9994 14.1741 39.9994C14.8366 39.9994 15.4719 39.7362 15.9403 39.2678C16.4088 38.7993 16.6719 38.164 16.6719 37.5016C16.6719 36.8391 16.4088 36.2038 15.9403 35.7354C15.4719 35.2669 14.8366 35.0038 14.1741 35.0038ZM20.8391 35.0038C20.5035 34.991 20.1687 35.046 19.8548 35.1655C19.5409 35.285 19.2542 35.4664 19.012 35.6991C18.7697 35.9317 18.5768 36.2108 18.4447 36.5196C18.3127 36.8285 18.2442 37.1607 18.2433 37.4966C18.2425 37.8325 18.3093 38.1651 18.4398 38.4746C18.5703 38.7841 18.7618 39.0641 19.0029 39.298C19.244 39.5319 19.5297 39.7148 19.843 39.8358C20.1563 39.9569 20.4908 40.0135 20.8265 40.0025C21.4741 39.9812 22.0882 39.7094 22.5394 39.2443C22.9905 38.7792 23.2436 38.1572 23.2452 37.5092C23.2469 36.8613 22.9969 36.238 22.5481 35.7706C22.0993 35.3032 21.4866 35.0283 20.8391 35.0038ZM7.49653 36.6637C7.94065 36.6637 8.33438 37.0291 8.33438 37.4984C8.33438 37.7198 8.24644 37.9321 8.0899 38.0886C7.93337 38.2452 7.72106 38.3331 7.49968 38.3331C7.27831 38.3331 7.066 38.2452 6.90946 38.0886C6.75293 37.9321 6.66498 37.7198 6.66498 37.4984C6.66498 37.0291 7.05241 36.6637 7.49653 36.6637ZM14.1741 36.6637C14.6214 36.6637 15.0025 37.0291 15.0025 37.4984C15.0025 37.9677 14.6245 38.33 14.1741 38.33C13.7237 38.33 13.3331 37.9709 13.3331 37.4984C13.3331 37.0259 13.7268 36.6637 14.1741 36.6637ZM20.8391 36.6637C21.2769 36.6637 21.6675 37.0291 21.6675 37.4984C21.6675 37.9677 21.2895 38.33 20.8391 38.33C20.3855 38.33 20.0013 37.9709 20.0013 37.4984C20.0013 37.0259 20.4013 36.6637 20.8391 36.6637ZM25.8315 36.6637C24.7449 36.6637 24.7449 38.33 25.8315 38.33H33.3407C34.4274 38.33 34.4274 36.6606 33.3407 36.6606L25.8315 36.6637ZM37.0858 36.6637C35.996 36.6637 35.996 38.33 37.0858 38.33H39.171C40.2576 38.33 40.2576 36.6606 39.171 36.6606L37.0858 36.6637ZM5.83029 46.6675H9.99748V48.3337H5.83344L5.83029 46.6675ZM39.9994 46.6675H44.1665V48.3337H40.0057L39.9994 46.6675Z" fill="black"/>
</svg>
