<svg width="50" height="50" viewBox="0 0 50 50" fill="none" xmlns="http://www.w3.org/2000/svg">
<path d="M27.1719 24.5895C27.1048 24.4903 27.0145 24.4092 26.9087 24.353C26.803 24.2969 26.6851 24.2676 26.5655 24.2676H24.5159L25.6798 21.3579C25.7519 21.1776 25.7495 20.976 25.673 20.7974C25.5965 20.6189 25.4522 20.478 25.2718 20.4059C25.1825 20.3701 25.087 20.3523 24.9908 20.3534C24.8946 20.3546 24.7996 20.3747 24.7112 20.4126C24.6228 20.4505 24.5427 20.5054 24.4755 20.5743C24.4084 20.6431 24.3554 20.7246 24.3197 20.8139L22.7541 24.7281C22.7096 24.8392 22.6931 24.9595 22.7059 25.0785C22.7187 25.1976 22.7604 25.3116 22.8275 25.4107C22.8947 25.5099 22.985 25.591 23.0908 25.6471C23.1965 25.7032 23.3144 25.7325 23.4341 25.7325H25.4836L24.3197 28.6421C24.2476 28.8225 24.2501 29.0241 24.3266 29.2027C24.4031 29.3812 24.5474 29.522 24.7278 29.5942C24.8142 29.6289 24.9064 29.6468 24.9995 29.6468C25.146 29.6468 25.289 29.603 25.4103 29.5209C25.5316 29.4388 25.6254 29.3222 25.6798 29.1863L27.2454 25.2721C27.2899 25.161 27.3064 25.0407 27.2936 24.9216C27.2808 24.8026 27.239 24.6886 27.1719 24.5895Z" fill="black"/>
<path d="M45.9611 4.19557C43.3599 1.55328 39.8925 0.0640239 36.1977 0.00210981C32.5107 -0.0607808 28.9911 1.37057 26.2877 4.02906C23.5112 6.75934 21.9189 10.5369 21.9189 14.3928V17.2221H19.5201C18.2529 17.2221 17.2221 18.2531 17.2221 19.5202V30.4796C17.2221 31.7468 18.253 32.7777 19.5201 32.7777H21.9189V35.9594C21.9189 38.169 20.9784 40.2925 19.3384 41.7854C17.6773 43.2974 15.525 44.0136 13.2789 43.8022C9.28789 43.4265 6.16172 39.8708 6.16172 35.7072C6.16172 35.5129 6.08456 35.3266 5.9472 35.1893C5.80985 35.0519 5.62355 34.9748 5.4293 34.9748C5.23505 34.9748 5.04876 35.0519 4.9114 35.1893C4.77404 35.3266 4.69688 35.5129 4.69688 35.7072C4.69688 38.0693 5.54834 40.3479 7.09434 42.1233C8.66524 43.9272 10.8129 45.0414 13.1416 45.2605C13.4448 45.2891 13.7492 45.3035 14.0537 45.3036C16.3819 45.3036 18.581 44.4557 20.3245 42.8686C22.2688 41.0987 23.3839 38.5804 23.3839 35.9594V32.7777H26.616V35.607C26.616 39.0729 25.1832 42.4697 22.685 44.9263C20.2638 47.3073 17.1193 48.5882 13.8267 48.5331C10.5182 48.4777 7.4127 47.1436 5.08262 44.7766C2.74971 42.4069 1.46504 39.2755 1.46504 35.9593V25.7828C1.46504 25.7549 1.4876 25.7324 1.51543 25.7324H4.64668C4.67452 25.7324 4.69707 25.7549 4.69707 25.7828V32.5346C4.69707 32.7289 4.77424 32.9152 4.9116 33.0525C5.04895 33.1899 5.23525 33.2671 5.4295 33.2671C5.62375 33.2671 5.81004 33.1899 5.9474 33.0525C6.08475 32.9152 6.16192 32.7289 6.16192 32.5346V25.7828C6.16192 24.9472 5.48223 24.2675 4.64668 24.2675H3.81338V20.303C3.81338 20.1087 3.73622 19.9224 3.59886 19.7851C3.46151 19.6477 3.27521 19.5706 3.08096 19.5706C2.88671 19.5706 2.70042 19.6477 2.56306 19.7851C2.4257 19.9224 2.34854 20.1087 2.34854 20.303V24.2675H1.51534C0.679789 24.2675 0.000101199 24.9472 0.000101199 25.7828V35.9593C0.000101199 39.6626 1.43438 43.1589 4.03868 45.8043C6.63994 48.4465 10.1073 49.9359 13.8022 49.9977C13.8787 49.999 13.9548 49.9997 14.0312 49.9997C17.6347 49.9997 21.0647 48.5742 23.712 45.9708C26.4885 43.2405 28.0808 39.4629 28.0808 35.607V32.7777H30.4796C31.7468 32.7777 32.7776 31.7467 32.7776 30.4796V19.5203C32.7776 18.2531 31.7467 17.2222 30.4796 17.2222H28.0808V14.0405C28.0808 11.8309 29.0213 9.70738 30.6613 8.21451C32.3224 6.7025 34.4746 5.98648 36.7208 6.19772C40.7118 6.5734 43.838 10.1292 43.838 14.2927C43.838 14.487 43.9152 14.6733 44.0525 14.8106C44.1899 14.948 44.3762 15.0252 44.5704 15.0252C44.7647 15.0252 44.951 14.948 45.0883 14.8106C45.2257 14.6733 45.3028 14.487 45.3028 14.2927C45.3028 11.9306 44.4514 9.65201 42.9054 7.87662C41.3345 6.07271 39.1868 4.95856 36.8581 4.73941C34.1955 4.48883 31.645 5.33824 29.6752 7.13131C27.731 8.90123 26.6158 11.4195 26.6158 14.0405V17.2222H23.3836V14.3929C23.3836 10.927 24.8164 7.53023 27.3147 5.07359C29.7358 2.69264 32.8807 1.41246 36.173 1.46686C39.4814 1.52223 42.5869 2.85631 44.917 5.2233C47.2499 7.59303 48.5346 10.7244 48.5346 14.0406V24.2171C48.5346 24.2238 48.5333 24.2303 48.5307 24.2364C48.5282 24.2425 48.5245 24.2481 48.5198 24.2528C48.5151 24.2575 48.5096 24.2612 48.5035 24.2637C48.4974 24.2662 48.4908 24.2675 48.4842 24.2675H45.3529C45.3463 24.2675 45.3398 24.2662 45.3337 24.2637C45.3275 24.2612 45.322 24.2575 45.3173 24.2528C45.3126 24.2481 45.3089 24.2425 45.3064 24.2364C45.3038 24.2303 45.3025 24.2238 45.3025 24.2171V17.4653C45.3025 17.271 45.2254 17.0847 45.088 16.9474C44.9507 16.81 44.7644 16.7329 44.5701 16.7329C44.3759 16.7329 44.1896 16.81 44.0522 16.9474C43.9149 17.0847 43.8377 17.271 43.8377 17.4653V24.2171C43.8377 25.0527 44.5174 25.7324 45.3529 25.7324H46.1861V29.6969C46.1861 29.8912 46.2633 30.0775 46.4007 30.2148C46.538 30.3522 46.7243 30.4294 46.9186 30.4294C47.1128 30.4294 47.2991 30.3522 47.4365 30.2148C47.5738 30.0775 47.651 29.8912 47.651 29.6969V25.7324H48.4842C49.3197 25.7324 49.9994 25.0527 49.9994 24.2171V14.0405C49.9997 10.3373 48.5654 6.84107 45.9611 4.19557ZM30.4796 18.6871C30.939 18.6871 31.3128 19.0609 31.3128 19.5203V30.4797C31.3128 30.9392 30.939 31.3129 30.4796 31.3129H19.5201C19.0606 31.3129 18.6869 30.9391 18.6869 30.4797V19.5203C18.6869 19.0608 19.0607 18.6871 19.5201 18.6871H30.4796ZM2.17032 17.6271L1.3875 16.0615C1.34451 15.9754 1.28498 15.8987 1.21232 15.8357C1.13967 15.7727 1.0553 15.7246 0.964053 15.6941C0.872803 15.6637 0.776453 15.6516 0.68051 15.6584C0.584566 15.6652 0.490908 15.6909 0.404886 15.7339C0.318853 15.777 0.242135 15.8365 0.179112 15.9091C0.116089 15.9818 0.0679962 16.0662 0.0375805 16.1574C0.00716482 16.2487 -0.00497815 16.345 0.00184509 16.4409C0.00866834 16.5369 0.0343241 16.6305 0.0773473 16.7166L0.86016 18.2822C0.903165 18.3682 0.962697 18.4449 1.03536 18.508C1.10801 18.571 1.19238 18.6191 1.28362 18.6495C1.37487 18.6799 1.47121 18.6921 1.56716 18.6852C1.6631 18.6784 1.75675 18.6527 1.84278 18.6097C1.92881 18.5667 2.00553 18.5072 2.06855 18.4345C2.13157 18.3619 2.17967 18.2775 2.21008 18.1863C2.2405 18.095 2.25264 17.9987 2.24582 17.9027C2.23899 17.8068 2.21334 17.7131 2.17032 17.6271Z" fill="black"/>
<path d="M5.75695 15.734C5.67092 15.6909 5.57727 15.6653 5.48133 15.6585C5.38539 15.6516 5.28904 15.6638 5.19779 15.6942C5.10655 15.7246 5.02219 15.7727 4.94953 15.8357C4.87687 15.8988 4.81734 15.9755 4.77433 16.0615L3.99152 17.6271C3.94762 17.7132 3.9212 17.8072 3.91378 17.9036C3.90636 18 3.9181 18.0969 3.94831 18.1887C3.97852 18.2805 4.02661 18.3654 4.0898 18.4386C4.15299 18.5117 4.23004 18.5716 4.31649 18.6149C4.40295 18.6581 4.49711 18.6838 4.59355 18.6905C4.68998 18.6971 4.78678 18.6846 4.87836 18.6537C4.96995 18.6228 5.0545 18.574 5.12715 18.5103C5.19981 18.4465 5.25912 18.369 5.30168 18.2822L6.08449 16.7166C6.12751 16.6306 6.15317 16.5369 6.15999 16.441C6.16681 16.345 6.15467 16.2487 6.12425 16.1574C6.09384 16.0662 6.04575 15.9818 5.98272 15.9092C5.9197 15.8365 5.84298 15.777 5.75695 15.734ZM49.9225 33.2835L49.1397 31.7178C49.0967 31.6318 49.0371 31.5551 48.9645 31.4921C48.8918 31.429 48.8075 31.3809 48.7162 31.3505C48.625 31.3201 48.5286 31.3079 48.4327 31.3148C48.3367 31.3216 48.2431 31.3473 48.157 31.3903C48.071 31.4333 47.9943 31.4928 47.9313 31.5655C47.8682 31.6382 47.8202 31.7225 47.7897 31.8138C47.7593 31.905 47.7472 32.0014 47.754 32.0973C47.7608 32.1932 47.7865 32.2869 47.8295 32.3729L48.6123 33.9386C48.6553 34.0246 48.7149 34.1013 48.7875 34.1643C48.8602 34.2274 48.9445 34.2754 49.0358 34.3059C49.127 34.3363 49.2234 34.3484 49.3193 34.3416C49.4153 34.3348 49.5089 34.3091 49.5949 34.2661C49.681 34.2231 49.7577 34.1636 49.8207 34.0909C49.8837 34.0182 49.9318 33.9339 49.9622 33.8426C49.9927 33.7514 50.0048 33.655 49.998 33.5591C49.9912 33.4632 49.9655 33.3695 49.9225 33.2835ZM45.6809 31.3903C45.5071 31.3034 45.306 31.2892 45.1217 31.3506C44.9375 31.412 44.7851 31.5441 44.6983 31.7178L43.9154 33.2835C43.8596 33.3951 43.8332 33.5191 43.8387 33.6438C43.8443 33.7685 43.8816 33.8897 43.9472 33.9959C44.0128 34.1021 44.1044 34.1898 44.2134 34.2507C44.3224 34.3115 44.4451 34.3435 44.5699 34.3435C44.8386 34.3435 45.0973 34.1951 45.2256 33.9386L46.0084 32.3729C46.0514 32.2869 46.0771 32.1932 46.0839 32.0973C46.0907 32.0014 46.0786 31.905 46.0482 31.8138C46.0178 31.7225 45.9697 31.6382 45.9066 31.5655C45.8436 31.4928 45.7669 31.4333 45.6809 31.3903Z" fill="black"/>
</svg>
