<svg width="35" height="35" viewBox="0 0 35 35" fill="none" xmlns="http://www.w3.org/2000/svg">
<g clip-path="url(#clip0_920_306)">
<path d="M17.5 8.75C12.67 8.75 8.75 12.67 8.75 17.5C8.75 22.33 12.67 26.25 17.5 26.25C22.33 26.25 26.25 22.3299 26.25 17.4999C26.25 12.6699 22.33 8.75 17.5 8.75Z" fill="black"/>
<path d="M17.5 0C7.83127 0 0 7.83127 0 17.5C0 27.1686 7.83127 34.9999 17.5 34.9999C27.1686 34.9999 35 27.1687 35 17.5C35 7.83119 27.1687 0 17.5 0ZM17.5 31.5C9.76499 31.5 3.49994 25.235 3.49994 17.5C3.49994 9.76491 9.76499 3.50002 17.5 3.50002C25.2349 3.50002 31.5 9.76499 31.5 17.5C31.5 25.2349 25.235 31.5 17.5 31.5Z" fill="black"/>
</g>
<defs>
<clipPath id="clip0_920_306">
<rect width="35" height="35" fill="white"/>
</clipPath>
</defs>
</svg>
