<svg width="12" height="14" viewBox="0 0 12 14" fill="none" xmlns="http://www.w3.org/2000/svg">
<path d="M10.0998 1.83426H8.8332V1.26764C8.8332 1.08432 8.63322 1.001 8.4499 1.001H7.46666C7.23335 0.334387 6.65006 0.00107906 5.98344 0.00107906C5.32416 -0.0237061 4.7245 0.380545 4.50022 1.001H3.53363C3.35031 1.001 3.16699 1.08432 3.16699 1.26764V1.83426H1.90039C1.14982 1.84227 0.535768 2.43437 0.500488 3.18414V12.7334C0.500488 13.4667 1.1671 14 1.90039 14H10.0998C10.833 14 11.4997 13.4667 11.4997 12.7334V3.18417C11.4644 2.43437 10.8503 1.84227 10.0998 1.83426ZM3.83357 1.66762H4.75018C4.82812 1.65811 4.90095 1.62383 4.95795 1.56983C5.01496 1.51583 5.05312 1.44496 5.06683 1.36765C5.16553 0.937845 5.5426 0.629322 5.98344 0.617711C6.42019 0.630948 6.79159 0.940428 6.88336 1.36765C6.89789 1.44748 6.93849 1.52024 6.99881 1.57453C7.05913 1.62881 7.13575 1.66155 7.21667 1.66762H8.16661V3.00085H3.83357V1.66762ZM10.833 12.7334C10.833 13.1001 10.4664 13.3334 10.0998 13.3334H1.90039C1.53375 13.3334 1.1671 13.1001 1.1671 12.7334V3.18417C1.20111 2.80254 1.51729 2.50789 1.90039 2.50091H3.16695V3.35084C3.18456 3.53758 3.34629 3.67726 3.5336 3.6675H8.44987C8.54186 3.67253 8.63237 3.64275 8.70339 3.58407C8.77442 3.5254 8.82075 3.44213 8.83316 3.35084V2.50088H10.0997C10.4828 2.50789 10.799 2.80251 10.833 3.18414V12.7334H10.833Z" fill="black"/>
<path d="M4.71683 7.45055C4.59182 7.31878 4.38429 7.31135 4.25019 7.4339L3.1836 8.45048L2.73363 7.98383C2.60862 7.85206 2.40109 7.84466 2.26699 7.96718C2.20484 8.03229 2.17017 8.11883 2.17017 8.20883C2.17017 8.29883 2.20484 8.38538 2.26699 8.45048L2.95026 9.15043C2.97947 9.18314 3.0155 9.20905 3.05581 9.22633C3.09612 9.24361 3.13973 9.25183 3.18356 9.25043C3.27148 9.24918 3.35534 9.21324 3.41687 9.15043L4.71677 7.9172C4.84564 7.79898 4.85425 7.59866 4.736 7.46982C4.72993 7.46309 4.72353 7.45666 4.71683 7.45055ZM9.4998 8.16716H5.66677C5.48268 8.16716 5.33346 8.31638 5.33346 8.50046C5.33346 8.68455 5.48268 8.83377 5.66677 8.83377H9.4998C9.68389 8.83377 9.83311 8.68455 9.83311 8.50046C9.83311 8.31638 9.68389 8.16716 9.4998 8.16716ZM4.71683 4.78409C4.59182 4.65231 4.38429 4.64488 4.25019 4.76744L3.1836 5.78401L2.73363 5.31737C2.60862 5.1856 2.40109 5.17816 2.26699 5.30072C2.20484 5.36582 2.17017 5.45236 2.17017 5.54236C2.17017 5.63237 2.20484 5.71891 2.26699 5.78401L2.95026 6.48396C2.97947 6.51667 3.0155 6.54258 3.05581 6.55986C3.09612 6.57714 3.13973 6.58537 3.18356 6.58396C3.27148 6.58272 3.35534 6.54677 3.41687 6.48396L4.71677 5.25073C4.84564 5.13252 4.85425 4.93219 4.736 4.80335C4.72993 4.79663 4.72353 4.7902 4.71683 4.78409ZM9.4998 5.50069H5.66677C5.48268 5.50069 5.33346 5.64991 5.33346 5.834C5.33346 6.01808 5.48268 6.16731 5.66677 6.16731H9.4998C9.68389 6.16731 9.83311 6.01808 9.83311 5.834C9.83311 5.64991 9.68389 5.50069 9.4998 5.50069ZM4.71683 10.117C4.59182 9.98522 4.38429 9.97781 4.25019 10.1003L3.1836 11.1169L2.73363 10.6503C2.60862 10.5185 2.40109 10.5111 2.26699 10.6336C2.20484 10.6987 2.17017 10.7853 2.17017 10.8753C2.17017 10.9653 2.20484 11.0518 2.26699 11.1169L2.95026 11.8169C2.97947 11.8496 3.0155 11.8755 3.05581 11.8928C3.09612 11.91 3.13973 11.9183 3.18356 11.9169C3.27148 11.9156 3.35534 11.8797 3.41687 11.8169L4.71677 10.5836C4.84564 10.4654 4.85425 10.2651 4.736 10.1363C4.72991 10.1295 4.72351 10.1231 4.71683 10.117ZM9.4998 10.8336H5.66677C5.48268 10.8336 5.33346 10.9828 5.33346 11.1669C5.33346 11.351 5.48268 11.5002 5.66677 11.5002H9.4998C9.68389 11.5002 9.83311 11.351 9.83311 11.1669C9.83311 10.9828 9.68389 10.8336 9.4998 10.8336Z" fill="black"/>
</svg>
