<svg width="44" height="47" viewBox="0 0 44 47" fill="none" xmlns="http://www.w3.org/2000/svg">
<path fill-rule="evenodd" clip-rule="evenodd" d="M29.9122 1.48994C38.2746 4.74463 43.9082 12.826 43.9082 21.9542C43.9082 30.4814 38.9977 38.1183 31.4604 41.7454L32.7364 42.0873C32.8366 42.1127 32.9307 42.1577 33.0134 42.2197C33.096 42.2817 33.1655 42.3596 33.2178 42.4487C33.2701 42.5378 33.3042 42.6364 33.3181 42.7388C33.332 42.8412 33.3254 42.9453 33.2987 43.0451C33.272 43.145 33.2258 43.2385 33.1627 43.3203C33.0996 43.4021 33.0208 43.4706 32.9311 43.5217C32.8413 43.5729 32.7422 43.6056 32.6397 43.6182C32.5371 43.6307 32.4331 43.6228 32.3336 43.5948L28.8509 42.6616C28.3571 42.5295 28.1124 41.9689 28.3913 41.4911L30.0735 38.3775C30.1715 38.1954 30.3377 38.0597 30.5357 38.0002C30.7337 37.9407 30.9473 37.9622 31.1294 38.0602C31.3115 38.1581 31.4472 38.3243 31.5068 38.5224C31.5663 38.7204 31.5447 38.9339 31.4468 39.116L30.7858 40.3394C37.7818 36.9731 42.3457 29.8844 42.3457 21.9541C42.3457 13.3373 36.9609 5.74844 29.0173 2.81611L24.4267 9.61963H31.3898V9.62061C32.0577 9.62041 32.4216 10.4157 31.9728 10.9196L25.1875 18.5306C26.9513 20.487 27.9462 23.0275 27.9462 25.7089C27.9462 32.169 22.9734 33.512 22.9734 38.1665V40.6787C22.9734 42.2164 21.9029 43.5349 20.4399 43.8832C19.8985 46.4132 16.7423 47.3712 14.8907 45.5196C14.4419 45.0716 14.1322 44.5033 13.999 43.8832C12.7364 43.5826 11.7543 42.553 11.5193 41.2717C4.48096 37.462 0 30.0968 0 21.9542C0 13.4269 4.91055 5.79014 12.4478 2.16299L11.1717 1.82109C11.0715 1.79573 10.9774 1.75072 10.8948 1.68869C10.8121 1.62665 10.7426 1.54882 10.6903 1.45971C10.638 1.3706 10.6039 1.27199 10.59 1.1696C10.5761 1.06722 10.5827 0.963087 10.6094 0.863262C10.6361 0.763438 10.6823 0.669906 10.7454 0.588094C10.8085 0.506282 10.8873 0.437821 10.9771 0.386683C11.0668 0.335545 11.1659 0.30275 11.2685 0.290199C11.371 0.277649 11.475 0.285594 11.5745 0.313574L15.0572 1.24678C15.5513 1.379 15.7956 1.93955 15.5168 2.41729L13.8346 5.53086C13.7366 5.71296 13.5704 5.84871 13.3724 5.90823C13.1744 5.96775 12.9608 5.94617 12.7787 5.84824C12.5966 5.75031 12.4609 5.58406 12.4013 5.38605C12.3418 5.18803 12.3634 4.97449 12.4613 4.79238L13.1223 3.56904C6.12627 6.93516 1.5625 14.0238 1.5625 21.9542C1.5625 29.2061 5.37363 35.7865 11.4657 39.447V38.1667C11.4367 33.4615 6.49307 32.1736 6.49307 25.7091C6.49307 18.7274 13.0556 13.6224 19.8105 15.2995C20.3588 15.4355 20.8954 15.6146 21.4154 15.8352L21.879 14.4276H14.5266V14.4259C13.9341 14.4264 13.5488 13.7803 13.8521 13.2558L21.2515 0.439844C21.3155 0.307964 21.4154 0.196776 21.5397 0.118995C21.664 0.0412127 21.8077 -2.39603e-05 21.9543 1.04446e-08H29.4492V0.00078139C30.0672 0.000195453 30.448 0.696094 30.0962 1.21768L29.9122 1.48994ZM14.7074 29.9521H15.1822V29.4772C15.1822 29.066 14.6774 28.8377 14.3727 29.1425C14.0679 29.4473 14.2961 29.9521 14.7074 29.9521ZM19.2569 29.4772V29.9521H19.7317C20.143 29.9521 20.3713 29.4473 20.0665 29.1425C19.7617 28.8378 19.2569 29.066 19.2569 29.4772ZM17.6944 37.3854V31.5146H16.7447V37.3854H17.6944ZM15.1822 37.3854V31.5146H14.7074C12.9098 31.5146 11.9807 29.325 13.2679 28.0378C14.5551 26.7506 16.7447 27.6796 16.7447 29.4772V29.9521H17.6944V29.4772C17.6944 27.6796 19.884 26.7505 21.1713 28.0378C22.4586 29.3251 21.5294 31.5146 19.7318 31.5146H19.257V37.3854H21.4479C21.9011 32.6521 26.3838 31.29 26.3838 25.709C26.3838 23.4671 25.5817 21.3584 24.1434 19.702L20.3155 23.9955C19.7442 24.6619 18.7071 24.0569 18.9713 23.2548L20.9249 17.3238C17.4671 15.7896 13.4065 16.5619 10.7395 19.2288C9.08125 20.8872 8.05547 23.1782 8.05547 25.7089C8.05547 31.29 12.5383 32.652 12.9913 37.3853H15.1822V37.3854ZM27.9805 1.5625H22.403L15.8774 12.8651H22.9582C23.4852 12.8651 23.8805 13.3803 23.6896 13.9214L21.629 20.177L29.648 11.1822H22.9581C22.345 11.1822 21.9378 10.4884 22.3321 9.9335L27.9805 1.5625ZM19.6802 42.4097C20.6306 42.4097 21.4111 41.6292 21.4111 40.6788V38.9479H13.0282V40.6788C13.0282 41.6292 13.8088 42.4097 14.7592 42.4097H19.6802ZM15.6746 43.9722C16.3146 45.2353 18.1249 45.2354 18.7646 43.9722H15.6746Z" fill="black"/>
</svg>
