<svg width="40" height="40" viewBox="0 0 40 40" fill="none" xmlns="http://www.w3.org/2000/svg">
<path d="M39.341 24.3794H36.7054C36.3411 24.3794 36.0465 24.6746 36.0465 25.0383H29.4575C29.2822 25.0383 29.1149 25.1075 28.9917 25.2314L25.2801 28.943L12.2127 26.6704C11.9033 26.6166 11.5858 26.6311 11.2826 26.713C10.9794 26.7948 10.6977 26.942 10.4574 27.1442C10.217 27.3462 10.0237 27.5984 9.89122 27.8831C9.75871 28.1678 9.69018 28.4781 9.69043 28.7921C9.69043 29.5544 10.0996 30.2674 10.7585 30.6522L25.1325 39.0367C25.4614 39.2294 25.8358 39.3308 26.217 39.3306C26.5465 39.3306 26.8759 39.2548 27.181 39.1026L34.2253 35.5807H36.0465C36.0465 35.9445 36.3411 36.2396 36.7054 36.2396H39.341C39.7054 36.2396 40 35.9445 40 35.5807V25.0383C40 24.6746 39.7054 24.3794 39.341 24.3794ZM36.0465 34.2629H34.0698C33.9677 34.2629 33.8662 34.2867 33.7753 34.3321L26.5913 37.9245C26.4672 37.9867 26.3295 38.017 26.1907 38.0125C26.0519 38.008 25.9165 37.9689 25.7966 37.8988L11.4233 29.5142C11.2973 29.4404 11.1927 29.335 11.1198 29.2083C11.047 29.0816 11.0086 28.9382 11.0082 28.7921C11.0082 28.6702 11.0348 28.5497 11.0862 28.4391C11.1376 28.3286 11.2126 28.2306 11.3059 28.1522C11.3992 28.0737 11.5086 28.0166 11.6263 27.9848C11.744 27.9531 11.8673 27.9475 11.9874 27.9684L24.1402 30.0822L23.6065 30.6159C23.1307 31.0923 22.8685 31.7255 22.8685 32.3989C22.8685 33.7905 24.0005 34.9218 25.3908 34.9218C26.0648 34.9218 26.698 34.6596 27.1744 34.1826L30.5823 30.7754L29.6506 29.8437L26.2427 33.2515C26.0162 33.4765 25.7101 33.6032 25.3908 33.604C24.7266 33.604 24.1863 33.0637 24.1863 32.3989C24.1863 32.0774 24.3115 31.7743 24.5388 31.5469L29.7303 26.3561H36.0465V34.2629ZM38.6821 34.9218H37.3643V25.6972H38.6821V34.9218ZM23.5274 9.88354C21.3471 9.88354 19.574 11.6567 19.574 13.837C19.574 16.0173 21.3471 17.7904 23.5274 17.7904C25.7077 17.7904 27.4808 16.0173 27.4808 13.837C27.4808 11.6567 25.7077 9.88354 23.5274 9.88354ZM23.5274 16.4726C22.0738 16.4726 20.8918 15.2905 20.8918 13.837C20.8918 12.3834 22.0738 11.2013 23.5274 11.2013C24.9809 11.2013 26.163 12.3834 26.163 13.837C26.163 15.2905 24.9809 16.4726 23.5274 16.4726Z" fill="black"/>
<path d="M36.0466 0H11.0083C10.6439 0 10.3494 0.295188 10.3494 0.658903V5.93012H5.07816C4.90289 5.93012 4.73553 5.99931 4.61232 6.12318L0 10.7355L0.931688 11.6672L5.35095 7.24793H10.3494V11.2013H7.05487V12.5192H15.6206C16.3474 12.5192 16.9384 13.1102 16.9384 13.837C16.9384 14.1882 16.8014 14.5189 16.5516 14.768C16.3019 15.0171 15.9711 15.1548 15.6206 15.1548H11.0083C10.9211 15.1547 10.8349 15.1722 10.7546 15.2062C10.6751 15.2392 10.6027 15.2876 10.5418 15.3485L8.56573 17.3245L9.49742 18.2562L10.3494 17.4043V21.0849H0.465844V22.4027H36.0466C36.411 22.4027 36.7055 22.1075 36.7055 21.7438V0.658903C36.7055 0.295188 36.411 0 36.0466 0ZM11.6672 6.58903H13.5602C13.3217 7.51413 12.5916 8.24353 11.6672 8.48271V6.58903ZM11.6672 21.0849V19.1912C12.5916 19.4304 13.3217 20.1598 13.5602 21.0849H11.6672ZM35.3877 21.0849H33.4947C33.7332 20.1598 34.4632 19.4304 35.3877 19.1912V21.0849ZM35.3877 17.8497C33.7358 18.1284 32.4318 19.433 32.1525 21.0849H14.9024C14.6237 19.433 13.3191 18.129 11.6672 17.8497V16.4726H15.6206C16.323 16.4726 16.9852 16.1978 17.4833 15.6997C17.9821 15.2015 18.2562 14.54 18.2562 13.837C18.2562 12.3834 17.0741 11.2013 15.6206 11.2013H11.6672V9.82424C13.3191 9.54552 14.623 8.2409 14.9024 6.58903H32.1525C32.4312 8.2409 33.7358 9.54486 35.3877 9.82424V17.8497ZM35.3877 8.48271C34.4632 8.24353 33.7332 7.51413 33.4947 6.58903H35.3877V8.48271ZM35.3877 5.27122H11.6672V3.95342H35.3877V5.27122ZM35.3877 2.63561H11.6672V1.31781H35.3877V2.63561Z" fill="black"/>
</svg>
