<svg width="24" height="40" viewBox="0 0 24 40" fill="none" xmlns="http://www.w3.org/2000/svg">
<path d="M13.9998 2.66663H9.99979C9.26338 2.66663 8.6665 3.2635 8.6665 3.99991V5.33327C8.6665 6.06959 9.26338 6.66655 9.99979 6.66655H13.9998C14.7361 6.66655 15.3331 6.06967 15.3331 5.33327V3.99991C15.3331 3.2635 14.7362 2.66663 13.9998 2.66663ZM9.99979 5.33327V3.99991H13.9998V5.33327H9.99979Z" fill="black"/>
<path d="M16 0H7.99992C6.89547 0 6.00008 0.895312 6.00008 2.00016V8.1275C2.52656 8.77281 0.00578125 11.8005 0 15.3332V30C0.00129924 31.2197 0.306808 32.4198 0.888864 33.4917C1.47092 34.5636 2.31114 35.4733 3.33344 36.1386V37.3334C3.33344 38.8063 4.52727 40 6.00008 40H17.9998C19.4727 40 20.6668 38.8062 20.6668 37.3334V36.1386C21.6891 35.4733 22.5293 34.5635 23.1113 33.4917C23.6933 32.4198 23.9987 31.2197 24 30V15.3333C23.9945 11.8005 21.4734 8.77289 18 8.12742V2.00008C17.9998 0.895469 17.1045 0 16 0ZM7.33344 2.00016C7.33341 1.91261 7.35062 1.82591 7.3841 1.74501C7.41758 1.66411 7.46666 1.5906 7.52855 1.52867C7.59044 1.46675 7.66393 1.41762 7.7448 1.38409C7.82568 1.35057 7.91237 1.3333 7.99992 1.33328H16.0002C16.3681 1.33328 16.6666 1.63172 16.6666 2.00016V7.99984H7.33336L7.33344 2.00016ZM19.3333 36.8326V37.3334C19.3333 38.0698 18.7364 38.6667 17.9999 38.6667H6.00008C5.26367 38.6667 4.66672 38.0698 4.66672 37.3334V36.8326C4.76258 36.8701 4.86203 36.8995 4.96 36.9315C5.05797 36.9632 5.13734 36.9946 5.22672 37.0221C5.36008 37.0605 5.48859 37.0886 5.6207 37.1234C5.7193 37.1472 5.81602 37.1734 5.91523 37.1899C6.05742 37.218 6.20148 37.236 6.34461 37.2568C6.43523 37.2693 6.52469 37.2861 6.61648 37.2952C6.85398 37.3181 7.09258 37.3312 7.33187 37.3312H16.6666C16.9061 37.3312 17.1448 37.3181 17.3819 37.2952C17.4741 37.2861 17.5635 37.2693 17.6541 37.2568C17.7973 37.2373 17.9412 37.2193 18.0832 37.1899C18.1827 37.1701 18.2795 37.1438 18.378 37.1234C18.5113 37.092 18.6447 37.0605 18.772 37.0221C18.8626 36.9946 18.9514 36.962 19.0387 36.9315C19.126 36.9006 19.2373 36.8702 19.3332 36.8326H19.3333ZM22.6667 15.3333V30C22.6539 32.4118 21.2101 34.5859 18.9921 35.5334C18.9408 35.5548 18.8868 35.5707 18.8355 35.5905C18.6653 35.6575 18.492 35.7163 18.3161 35.7666C18.2429 35.7873 18.1687 35.8054 18.094 35.824C17.9273 35.8646 17.7588 35.8982 17.588 35.9247C17.5214 35.9348 17.4546 35.9473 17.3835 35.9561C17.1455 35.9848 16.9062 35.9995 16.6666 36.0001H7.33336C7.09369 35.9985 6.85432 35.9829 6.61648 35.9534C6.55 35.9445 6.48008 35.932 6.41203 35.922C6.24204 35.8955 6.07324 35.8619 5.90609 35.8212C5.83133 35.8026 5.75742 35.7846 5.68391 35.7638C5.50812 35.7141 5.33539 35.654 5.16477 35.588C5.1132 35.568 5.05922 35.5521 5.00797 35.5307C2.79078 34.5837 1.34734 32.4109 1.33328 30V15.3333C1.33727 12.0212 4.02133 9.3375 7.33336 9.3332H16.6666C19.9787 9.3375 22.6627 12.0212 22.6666 15.3332L22.6667 15.3333Z" fill="black"/>
<path d="M14.1033 20.3193C12.9034 19.3555 11.8667 18.5193 11.8667 17.5193C11.8925 17.3458 11.9572 17.1804 12.056 17.0355C12.1549 16.8907 12.2852 16.7701 12.4373 16.6828C12.5725 16.5891 12.6722 16.4527 12.7205 16.2955C12.7688 16.1383 12.7629 15.9695 12.7037 15.8161C12.6444 15.6607 12.5349 15.5295 12.3925 15.4435C12.2502 15.3575 12.0831 15.3215 11.918 15.3412C9.51805 15.6281 8.39711 18.4708 8.39711 20.3012C8.44961 21.1875 8.74771 22.0416 9.25805 22.768C9.49117 23.0866 9.65236 23.4519 9.73047 23.8389C9.73047 24.4389 9.53672 24.4389 9.3307 24.4389C9.03312 24.4389 8.88328 24.3766 8.84117 24.318C8.76789 24.0805 8.78625 23.8243 8.89242 23.5993C8.94312 23.4514 8.943 23.2908 8.8921 23.143C8.84119 22.9952 8.74241 22.8686 8.61141 22.7833C8.47838 22.7034 8.32368 22.6672 8.16904 22.6798C8.0144 22.6924 7.86759 22.7531 7.74922 22.8534C6.69088 23.8285 6.06192 25.1831 6 26.6208C6 29.5713 8.24273 31.3333 12 31.3333C15.7573 31.3333 17.9998 29.5713 17.9998 26.6208C17.9998 23.4513 15.8391 21.7148 14.1033 20.3193ZM12.0001 30.0001C10.2572 30.0001 7.33328 29.5606 7.33328 26.6208C7.34017 26.0751 7.47734 25.5388 7.73336 25.0568C7.74133 25.0687 7.74867 25.08 7.75719 25.0907C7.94255 25.3262 8.18377 25.5116 8.45898 25.6303C8.73418 25.7489 9.03465 25.7969 9.33312 25.77C10.1711 25.77 11.0665 25.2634 11.0665 23.8367C11.008 23.2048 10.7803 22.6003 10.4073 22.0868C10.0266 21.5619 9.79377 20.9444 9.73312 20.2988C9.75212 19.3775 10.0316 18.4804 10.5391 17.7113C10.6393 19.2447 11.9173 20.2741 13.268 21.3587C14.9386 22.7021 16.668 24.0922 16.668 26.6208C16.6665 29.5606 13.7426 30.0001 12.0001 30.0001Z" fill="black"/>
</svg>
