<svg width="14" height="14" viewBox="0 0 14 14" fill="none" xmlns="http://www.w3.org/2000/svg">
<path d="M13.65 6.08932C13.6496 6.08902 13.6492 6.08858 13.6489 6.08825L7.93803 0.377617C7.69459 0.134039 7.37095 0 7.02672 0C6.68246 0 6.35882 0.134039 6.1153 0.37759L0.407375 6.08535C0.405461 6.08727 0.403438 6.08929 0.401633 6.09123C-0.0982656 6.59397 -0.0973906 7.40969 0.404094 7.91118C0.63318 8.1404 0.935656 8.27307 1.25921 8.28704C1.27245 8.28833 1.28571 8.28896 1.29905 8.28896H1.52655V12.4916C1.52655 13.3233 2.20331 14 3.03505 14H5.26934C5.49588 14 5.6795 13.8162 5.6795 13.5898V10.2949C5.6795 9.91542 5.98829 9.60673 6.36779 9.60673H7.68562C8.06516 9.60673 8.37381 9.91545 8.37381 10.2949V13.5898C8.37381 13.8163 8.55743 14 8.78397 14H11.0183C11.8501 14 12.5268 13.3234 12.5268 12.4916V8.28898H12.7378C13.082 8.28898 13.4056 8.15492 13.6492 7.91129C14.1513 7.40906 14.1515 6.59184 13.65 6.08929L13.65 6.08932ZM13.0691 7.33132C13.0257 7.37499 12.9741 7.40961 12.9172 7.43319C12.8604 7.45677 12.7994 7.46884 12.7378 7.4687H12.1166C11.89 7.4687 11.7064 7.65228 11.7064 7.87886V12.4916C11.7064 12.871 11.3977 13.1797 11.0182 13.1797H9.19412V10.2949C9.19412 9.46318 8.51745 8.78642 7.6856 8.78642H6.36782C5.53597 8.78642 4.85921 9.46318 4.85921 10.2949V13.1797H3.03511C2.65569 13.1797 2.34689 12.871 2.34689 12.4916V7.87883C2.34689 7.65226 2.16328 7.46867 1.93674 7.46867H1.32618C1.31978 7.46822 1.31337 7.46793 1.30696 7.4678C1.18476 7.46566 1.07016 7.41718 0.984301 7.33119C0.801645 7.14853 0.801645 6.8513 0.984301 6.66854C0.984383 6.66854 0.984383 6.66843 0.984492 6.66832L0.98482 6.66799L6.69548 0.957578C6.73886 0.913911 6.79048 0.879292 6.84734 0.855729C6.9042 0.832165 6.96517 0.820127 7.02672 0.820312C7.15179 0.820313 7.2694 0.869012 7.35794 0.957578L13.0673 6.66684L13.07 6.66941C13.2517 6.8524 13.2514 7.14902 13.0691 7.33132Z" fill="black"/>
</svg>
