<svg width="40" height="40" viewBox="0 0 40 40" fill="none" xmlns="http://www.w3.org/2000/svg">
<g clip-path="url(#clip0_903_71)">
<path d="M20.0001 10.5097L5.73426 22.2703C5.73426 22.2869 5.73008 22.3113 5.72174 22.3446C5.71357 22.3776 5.70923 22.4016 5.70923 22.4186V34.3275C5.70923 34.7575 5.86643 35.1302 6.18075 35.444C6.49498 35.7579 6.86709 35.9159 7.29716 35.9159H16.824V26.3885H23.1762V35.9163H32.703C33.1329 35.9163 33.5056 35.7586 33.8194 35.444C34.1337 35.1305 34.2914 34.7576 34.2914 34.3275V22.4186C34.2914 22.3526 34.2824 22.3027 34.2664 22.2703L20.0001 10.5097Z" fill="black"/>
<path d="M39.7241 19.5907L34.2909 15.0751V4.9524C34.2909 4.72098 34.2165 4.53067 34.0672 4.38173C33.9191 4.23295 33.7288 4.15857 33.4969 4.15857H28.7333C28.5017 4.15857 28.3114 4.23295 28.1624 4.38173C28.0137 4.53067 27.9394 4.72107 27.9394 4.9524V9.7904L21.8858 4.72889C21.3571 4.29882 20.7284 4.08383 20.0006 4.08383C19.2728 4.08383 18.6442 4.29882 18.115 4.72889L0.275696 19.5907C0.110325 19.7227 0.0196879 19.9005 0.00282925 20.1239C-0.0139425 20.347 0.0438462 20.542 0.176369 20.7072L1.71459 22.5433C1.84711 22.692 2.02057 22.783 2.23564 22.8163C2.43421 22.833 2.63278 22.7749 2.83135 22.6427L20.0001 8.32656L37.1689 22.6426C37.3015 22.758 37.4749 22.8156 37.69 22.8156H37.7645C37.9793 22.7829 38.1524 22.6913 38.2856 22.5429L39.824 20.7071C39.9563 20.5415 40.0142 20.3469 39.997 20.1235C39.9801 19.9008 39.8891 19.723 39.7241 19.5907Z" fill="black"/>
</g>
<defs>
<clipPath id="clip0_903_71">
<rect width="40" height="40" fill="white"/>
</clipPath>
</defs>
</svg>
