<svg width="45" height="50" viewBox="0 0 45 50" fill="none" xmlns="http://www.w3.org/2000/svg">
<path d="M31.5735 20.4319C31.5735 19.8921 31.1359 19.4546 30.5958 19.4546H21.9975C21.4577 19.4546 21.0201 19.8921 21.0201 20.4319C21.0201 20.9718 21.4576 21.4092 21.9975 21.4092H30.5957C31.1354 21.4092 31.5735 20.9717 31.5735 20.4319ZM12.9555 9.68018H11.1439C10.0273 9.68018 9.11943 10.5869 9.11943 11.7012V12.6419H8.17715C7.06064 12.6419 6.15234 13.5501 6.15234 14.666V16.4791C6.15234 17.5949 7.06055 18.5028 8.17715 18.5028H9.11943V19.4436C9.11943 20.5598 10.0273 21.4676 11.1438 21.4676H12.9555C14.0721 21.4676 14.9803 20.5597 14.9803 19.4436V18.5028H15.9226C17.0388 18.5028 17.947 17.5949 17.947 16.4791V14.666C17.947 13.5502 17.0388 12.6419 15.9226 12.6419H14.9803V11.7012C14.9803 10.5869 14.0721 9.68018 12.9555 9.68018ZM15.9222 14.597C15.9588 14.597 15.992 14.6298 15.992 14.666V16.4791C15.992 16.5149 15.9588 16.5478 15.9222 16.5478H14.0026C13.4628 16.5478 13.0253 16.9857 13.0253 17.5255V19.4435C13.0253 19.4798 12.9921 19.5126 12.9555 19.5126H11.1439C11.1076 19.5126 11.0744 19.4798 11.0744 19.4436V17.5254C11.0744 16.9856 10.6365 16.5477 10.0968 16.5477H8.17715C8.14053 16.5477 8.10742 16.5148 8.10742 16.479V14.666C8.10742 14.6298 8.14063 14.597 8.17715 14.597H10.0968C10.6365 14.597 11.0744 14.1595 11.0744 13.6196V11.7012C11.0744 11.6673 11.108 11.6353 11.1438 11.6353H12.9555C12.9913 11.6353 13.0253 11.6673 13.0253 11.7012V13.6196C13.0253 14.1594 13.4628 14.597 14.0026 14.597H15.9222ZM32 14.5992C32 14.0595 31.5625 13.6219 31.0227 13.6219H21.9975C21.4577 13.6219 21.0201 14.0594 21.0201 14.5992C21.0201 15.1394 21.4576 15.577 21.9975 15.577H31.0227C31.5624 15.577 32 15.1395 32 14.5992ZM7.78652 27.2393H30.1666C30.7064 27.2393 31.1439 26.8013 31.1439 26.2615C31.1439 25.7218 30.7064 25.2842 30.1666 25.2842H7.78652C7.24678 25.2842 6.80889 25.7217 6.80889 26.2615C6.80889 26.8013 7.24678 27.2393 7.78652 27.2393Z" fill="black"/>
<path d="M43.4082 30.8815C41.1025 30.5294 39.228 30.0567 37.7979 29.4678V20.969C37.7979 20.8407 37.7726 20.7135 37.7235 20.5949C37.6744 20.4763 37.6024 20.3685 37.5116 20.2777C37.4208 20.1869 37.3131 20.1149 37.1944 20.0657C37.0758 20.0166 36.9487 19.9913 36.8203 19.9913C36.2805 19.9913 35.8429 20.4288 35.8429 20.969V28.3909C35.6247 28.2242 35.4306 28.0521 35.2615 27.8732C35.1702 27.7767 35.0601 27.6998 34.938 27.6472C34.816 27.5947 34.6845 27.5676 34.5516 27.5676C34.4187 27.5676 34.2872 27.5947 34.1651 27.6472C34.043 27.6998 33.9329 27.7767 33.8416 27.8732C32.5467 29.2424 29.8046 30.2544 25.6924 30.8815C25.5078 30.9096 25.3353 30.9902 25.1953 31.1138H7.78652C7.24678 31.1138 6.80889 31.5513 6.80889 32.0911C6.80889 32.631 7.24678 33.0685 7.78652 33.0685H24.8619V36.9435H7.13008C6.59023 36.9435 6.15234 37.381 6.15234 37.9208C6.15234 38.4606 6.59023 38.898 7.13008 38.898H24.9401C25.2624 41.3468 26.4011 43.6291 28.3375 45.71H4.74209C3.20508 45.71 1.95498 44.4622 1.95498 42.9283V6.8958C1.95498 5.36191 3.20508 4.11416 4.74209 4.11416H9.40742V4.47646C9.40742 5.46572 10.2139 6.27061 11.2049 6.27061H26.5931C27.5841 6.27061 28.3905 5.46572 28.3905 4.47656V4.11416H33.0559C34.5928 4.11416 35.8433 5.36191 35.8433 6.8958V13.171C35.8433 13.7107 36.2808 14.1487 36.8206 14.1487C37.3604 14.1487 37.7979 13.7107 37.7979 13.171V6.8958C37.7979 4.28389 35.6709 2.15908 33.0559 2.15908H28.3906V1.79404C28.3905 0.804883 27.584 0 26.593 0H11.2049C10.2139 0 9.40742 0.804883 9.40742 1.79404V2.15908H4.74209C2.12744 2.15918 0 4.28389 0 6.8958V42.9283C0 45.5402 2.12705 47.665 4.74209 47.665H30.4379C32.1977 49.1748 33.284 49.9984 34.5451 50H34.549C35.9677 50 37.1624 48.9662 39.3299 47.0917C42.3928 44.44 44.0438 41.4165 44.2367 38.105C44.2379 38.0863 44.2387 38.0673 44.2387 38.0481V31.8478C44.2385 31.614 44.1547 31.3881 44.0024 31.2109C43.85 31.0336 43.6392 30.9168 43.4082 30.8815ZM11.3625 1.95508H26.4354V4.31543H11.3625V1.95508ZM42.2836 38.0188C42.1143 40.773 40.6898 43.3281 38.0505 45.6131C36.3579 47.0775 35.2395 48.0449 34.5485 48.0449H34.5479C33.8619 48.0442 32.8045 47.1291 31.0527 45.6135C28.4134 43.3285 26.9886 40.7737 26.8169 38.0188V32.6794C30.3913 32.0637 32.9392 31.1371 34.5517 29.8634C35.0544 30.2601 35.6479 30.6236 36.3354 30.9544C36.3796 30.9799 36.4262 31.0013 36.4742 31.0196C37.9719 31.7185 39.8986 32.2682 42.2836 32.6794V38.0188Z" fill="black"/>
<path d="M33.4107 39.7538L31.6915 38.141C31.2977 37.7716 30.679 37.7911 30.3097 38.1852C29.9401 38.5788 29.9599 39.1972 30.3537 39.5668L32.7969 41.8587C32.9781 42.0288 33.2172 42.1235 33.4657 42.1234C33.6018 42.1234 33.7365 42.095 33.8611 42.04C33.9856 41.9849 34.0973 41.9045 34.1889 41.8038L39.1446 36.356C39.5081 35.9566 39.4788 35.3382 39.0793 34.9751C38.6799 34.6116 38.0616 34.641 37.6985 35.0404L33.4107 39.7538ZM36.8204 16.0745C36.2805 16.0745 35.8429 16.5124 35.8429 17.0521V17.0685C35.8429 17.6083 36.2804 18.0458 36.8203 18.0458C37.3604 18.0458 37.798 17.6083 37.798 17.0685V17.0521C37.798 16.5124 37.3605 16.0745 36.8203 16.0745H36.8204Z" fill="black"/>
</svg>
