<svg width="50" height="48" viewBox="0 0 50 48" fill="none" xmlns="http://www.w3.org/2000/svg">
<path d="M46.875 6.29175H25V5.25008C25 4.56611 24.8653 3.88884 24.6035 3.25694C24.3418 2.62503 23.9582 2.05087 23.4745 1.56723C22.9909 1.0836 22.4167 0.699952 21.7848 0.438209C21.1529 0.176466 20.4756 0.041748 19.7917 0.041748H15.625C14.2437 0.041748 12.9189 0.590482 11.9422 1.56723C10.9654 2.54399 10.4167 3.86875 10.4167 5.25008V6.29175H9.375C8.5462 6.29175 7.75134 6.62099 7.16529 7.20704C6.57924 7.79309 6.25 8.58795 6.25 9.41675V22.0001C4.51604 22.2504 2.93016 23.1166 1.78248 24.4402C0.634799 25.7639 0.00205324 27.4565 0 29.2084L0 40.6668C0 42.6006 0.768227 44.4553 2.13568 45.8227C3.50313 47.1902 5.3578 47.9584 7.29167 47.9584H11.4583C13.2103 47.9564 14.9029 47.3236 16.2265 46.1759C17.5502 45.0283 18.4164 43.4424 18.6667 41.7084H46.875C47.7038 41.7084 48.4987 41.3792 49.0847 40.7931C49.6708 40.2071 50 39.4122 50 38.5834V9.41675C50 8.58795 49.6708 7.79309 49.0847 7.20704C48.4987 6.62099 47.7038 6.29175 46.875 6.29175ZM12.5 5.25008C12.5 4.42128 12.8292 3.62642 13.4153 3.04037C14.0013 2.45432 14.7962 2.12508 15.625 2.12508H19.7917C20.6205 2.12508 21.4153 2.45432 22.0014 3.04037C22.5874 3.62642 22.9167 4.42128 22.9167 5.25008V32.3334C22.9167 33.1622 22.5874 33.9571 22.0014 34.5431C21.4153 35.1292 20.6205 35.4584 19.7917 35.4584H15.625C14.7962 35.4584 14.0013 35.1292 13.4153 34.5431C12.8292 33.9571 12.5 33.1622 12.5 32.3334V5.25008ZM8.33333 9.41675C8.33333 9.14048 8.44308 8.87553 8.63843 8.68018C8.83378 8.48483 9.09873 8.37508 9.375 8.37508H10.4167V32.3334C10.4164 33.5341 10.831 34.698 11.5903 35.6281C12.3496 36.5582 13.4069 37.1974 14.5833 37.4376V39.6251H9.375C9.09873 39.6251 8.83378 39.5153 8.63843 39.32C8.44308 39.1246 8.33333 38.8597 8.33333 38.5834V9.41675ZM11.4583 45.8751H7.29167C5.91033 45.8751 4.58557 45.3264 3.60882 44.3496C2.63207 43.3728 2.08333 42.0481 2.08333 40.6668V29.2084C2.08309 28.0077 2.49769 26.8438 3.25697 25.9137C4.01625 24.9836 5.07358 24.3444 6.25 24.1043V38.5834C6.25 39.4122 6.57924 40.2071 7.16529 40.7931C7.75134 41.3792 8.5462 41.7084 9.375 41.7084H16.5625C16.3224 42.8848 15.6831 43.9422 14.753 44.7014C13.8229 45.4607 12.659 45.8753 11.4583 45.8751ZM16.6667 39.6251V37.5418H18.75V39.6251H16.6667ZM47.9167 38.5834C47.9167 38.8597 47.8069 39.1246 47.6116 39.32C47.4162 39.5153 47.1513 39.6251 46.875 39.6251H20.8333V37.4376C22.0098 37.1974 23.0671 36.5582 23.8264 35.6281C24.5856 34.698 25.0002 33.5341 25 32.3334V8.37508H46.875C47.1513 8.37508 47.4162 8.48483 47.6116 8.68018C47.8069 8.87553 47.9167 9.14048 47.9167 9.41675V38.5834Z" fill="black"/>
<path d="M44.7918 10.4585H28.1252C27.8489 10.4585 27.5839 10.5682 27.3886 10.7636C27.1932 10.9589 27.0835 11.2239 27.0835 11.5002V17.7502C27.0835 18.0264 27.1932 18.2914 27.3886 18.4867C27.5839 18.6821 27.8489 18.7918 28.1252 18.7918H44.7918C45.0681 18.7918 45.333 18.6821 45.5284 18.4867C45.7237 18.2914 45.8335 18.0264 45.8335 17.7502V11.5002C45.8335 11.2239 45.7237 10.9589 45.5284 10.7636C45.333 10.5682 45.0681 10.4585 44.7918 10.4585ZM43.7502 16.7085H29.1668V12.5418H43.7502V16.7085Z" fill="black"/>
<path d="M31.25 20.875H29.1667C28.5914 20.875 28.125 21.3414 28.125 21.9167V24C28.125 24.5753 28.5914 25.0417 29.1667 25.0417H31.25C31.8253 25.0417 32.2917 24.5753 32.2917 24V21.9167C32.2917 21.3414 31.8253 20.875 31.25 20.875Z" fill="black"/>
<path d="M37.5 20.875H35.4167C34.8414 20.875 34.375 21.3414 34.375 21.9167V24C34.375 24.5753 34.8414 25.0417 35.4167 25.0417H37.5C38.0753 25.0417 38.5417 24.5753 38.5417 24V21.9167C38.5417 21.3414 38.0753 20.875 37.5 20.875Z" fill="black"/>
<path d="M43.75 20.875H41.6667C41.0914 20.875 40.625 21.3414 40.625 21.9167V24C40.625 24.5753 41.0914 25.0417 41.6667 25.0417H43.75C44.3253 25.0417 44.7917 24.5753 44.7917 24V21.9167C44.7917 21.3414 44.3253 20.875 43.75 20.875Z" fill="black"/>
<path d="M31.25 27.125H29.1667C28.5914 27.125 28.125 27.5914 28.125 28.1667V30.25C28.125 30.8253 28.5914 31.2917 29.1667 31.2917H31.25C31.8253 31.2917 32.2917 30.8253 32.2917 30.25V28.1667C32.2917 27.5914 31.8253 27.125 31.25 27.125Z" fill="black"/>
<path d="M37.5 27.125H35.4167C34.8414 27.125 34.375 27.5914 34.375 28.1667V30.25C34.375 30.8253 34.8414 31.2917 35.4167 31.2917H37.5C38.0753 31.2917 38.5417 30.8253 38.5417 30.25V28.1667C38.5417 27.5914 38.0753 27.125 37.5 27.125Z" fill="black"/>
<path d="M43.75 27.125H41.6667C41.0914 27.125 40.625 27.5914 40.625 28.1667V30.25C40.625 30.8253 41.0914 31.2917 41.6667 31.2917H43.75C44.3253 31.2917 44.7917 30.8253 44.7917 30.25V28.1667C44.7917 27.5914 44.3253 27.125 43.75 27.125Z" fill="black"/>
<path d="M31.25 33.375H29.1667C28.5914 33.375 28.125 33.8414 28.125 34.4167V36.5C28.125 37.0753 28.5914 37.5417 29.1667 37.5417H31.25C31.8253 37.5417 32.2917 37.0753 32.2917 36.5V34.4167C32.2917 33.8414 31.8253 33.375 31.25 33.375Z" fill="black"/>
<path d="M37.5 33.375H35.4167C34.8414 33.375 34.375 33.8414 34.375 34.4167V36.5C34.375 37.0753 34.8414 37.5417 35.4167 37.5417H37.5C38.0753 37.5417 38.5417 37.0753 38.5417 36.5V34.4167C38.5417 33.8414 38.0753 33.375 37.5 33.375Z" fill="black"/>
<path d="M43.75 33.375H41.6667C41.0914 33.375 40.625 33.8414 40.625 34.4167V36.5C40.625 37.0753 41.0914 37.5417 41.6667 37.5417H43.75C44.3253 37.5417 44.7917 37.0753 44.7917 36.5V34.4167C44.7917 33.8414 44.3253 33.375 43.75 33.375Z" fill="black"/>
</svg>
