<svg width="14" height="10" viewBox="0 0 14 10" fill="none" xmlns="http://www.w3.org/2000/svg">
<path d="M12.7695 0.078125H1.23047C0.550621 0.078125 0 0.632164 0 1.30859V8.69141C0 9.37186 0.554668 9.92188 1.23047 9.92188H12.7695C13.4437 9.92188 14 9.37418 14 8.69141V1.30859C14 0.633367 13.4516 0.078125 12.7695 0.078125ZM12.5972 0.898438L7.87008 5.60066C7.63766 5.83308 7.32867 5.96105 7 5.96105C6.67133 5.96105 6.36234 5.83305 6.12916 5.59989L1.40279 0.898438H12.5972ZM0.820312 8.52445V1.47607L4.3651 5.00219L0.820312 8.52445ZM1.40331 9.10156L4.9467 5.5807L5.54988 6.1807C5.93723 6.56805 6.45222 6.78136 7 6.78136C7.54778 6.78136 8.06277 6.56805 8.44936 6.18147L9.0533 5.5807L12.5967 9.10156H1.40331ZM13.1797 8.52445L9.6349 5.00219L13.1797 1.47607V8.52445Z" fill="black"/>
</svg>
