<svg width="12" height="10" viewBox="0 0 12 10" fill="none" xmlns="http://www.w3.org/2000/svg">
<path d="M10.8883 2.99916L10.1708 4.07832C10.5168 4.76845 10.6862 5.53364 10.6638 6.30533C10.6414 7.07702 10.4279 7.83109 10.0424 8.49999H1.95744C1.45645 7.63088 1.24886 6.62348 1.36544 5.62711C1.48201 4.63075 1.91655 3.69847 2.60463 2.96849C3.29272 2.23851 4.19771 1.74968 5.18545 1.57448C6.17319 1.39928 7.1911 1.54703 8.08827 1.99582L9.16744 1.27832C8.06872 0.573782 6.76546 0.258076 5.46612 0.381702C4.16679 0.505329 2.94645 1.06115 2.00031 1.96025C1.05417 2.85935 0.436899 4.04978 0.247231 5.34113C0.0575637 6.63248 0.306459 7.95014 0.954104 9.08332C1.0559 9.25965 1.20207 9.40627 1.37809 9.5086C1.55411 9.61094 1.75384 9.66543 1.95744 9.66666H10.0366C10.2422 9.66747 10.4443 9.61395 10.6226 9.51152C10.8008 9.40908 10.9488 9.26136 11.0516 9.08332C11.5891 8.15228 11.8588 7.09081 11.831 6.01613C11.8032 4.94144 11.479 3.89534 10.8941 2.99332L10.8883 2.99916ZM5.17744 6.98916C5.28571 7.09777 5.41436 7.18394 5.556 7.24274C5.69764 7.30154 5.84949 7.33181 6.00285 7.33181C6.15622 7.33181 6.30807 7.30154 6.44971 7.24274C6.59135 7.18394 6.72 7.09777 6.82827 6.98916L10.1299 2.03666L5.17744 5.33832C5.06897 5.44667 4.98291 5.57534 4.9242 5.71698C4.86549 5.85861 4.83527 6.01042 4.83527 6.16374C4.83527 6.31706 4.86549 6.46887 4.9242 6.6105C4.98291 6.75213 5.06897 6.8808 5.17744 6.98916Z" fill="black"/>
</svg>
