<svg width="38" height="49" viewBox="0 0 38 49" fill="none" xmlns="http://www.w3.org/2000/svg">
<path d="M28.6654 2.74316C28.5869 2.74316 28.5093 2.75863 28.4368 2.78868C28.3643 2.81872 28.2985 2.86276 28.2431 2.91827C28.1877 2.97378 28.1438 3.03968 28.1138 3.11218C28.0839 3.18469 28.0686 3.26238 28.0687 3.34082C28.0687 3.90918 27.6058 4.37207 27.0365 4.37207H19.4193C18.851 4.37207 18.388 3.90918 18.388 3.34082C18.388 3.18231 18.3251 3.0303 18.213 2.91821C18.1009 2.80613 17.9489 2.74316 17.7904 2.74316C17.6319 2.74316 17.4798 2.80613 17.3678 2.91821C17.2557 3.0303 17.1927 3.18231 17.1927 3.34082C17.1927 4.56836 18.1917 5.56738 19.4193 5.56738H27.0365C28.265 5.56738 29.263 4.56836 29.263 3.34082C29.263 3.01074 28.9964 2.74316 28.6654 2.74316ZM24.2005 16.666H17.0404C15.6703 16.666 14.556 17.7852 14.556 19.1621V22.7363C14.556 23.0664 14.8236 23.334 15.1537 23.334C15.4837 23.334 15.7503 23.0664 15.7503 22.7363V19.1621C15.7503 18.4443 16.3294 17.8613 17.0404 17.8613H24.2004C24.8996 17.8613 25.4895 18.457 25.4895 19.1621V26.3105C25.4895 27.0156 24.8996 27.6113 24.2004 27.6113H22.2903C22.1318 27.6113 21.9798 27.6743 21.8677 27.7864C21.7556 27.8985 21.6926 28.0505 21.6926 28.209C21.6926 28.3675 21.7556 28.5195 21.8677 28.6316C21.9798 28.7437 22.1318 28.8066 22.2903 28.8066H24.2004C25.5705 28.8066 26.6848 27.6875 26.6848 26.3105V19.1621C26.6849 17.7852 25.5706 16.666 24.2005 16.666ZM28.6654 2.74316C28.5869 2.74316 28.5093 2.75863 28.4368 2.78868C28.3643 2.81872 28.2985 2.86276 28.2431 2.91827C28.1877 2.97378 28.1438 3.03968 28.1138 3.11218C28.0839 3.18469 28.0686 3.26238 28.0687 3.34082C28.0687 3.90918 27.6058 4.37207 27.0365 4.37207H19.4193C18.851 4.37207 18.388 3.90918 18.388 3.34082C18.388 3.18231 18.3251 3.0303 18.213 2.91821C18.1009 2.80613 17.9489 2.74316 17.7904 2.74316C17.6319 2.74316 17.4798 2.80613 17.3678 2.91821C17.2557 3.0303 17.1927 3.18231 17.1927 3.34082C17.1927 4.56836 18.1917 5.56738 19.4193 5.56738H27.0365C28.265 5.56738 29.263 4.56836 29.263 3.34082C29.263 3.01074 28.9964 2.74316 28.6654 2.74316ZM28.6654 2.74316C28.5869 2.74316 28.5093 2.75863 28.4368 2.78868C28.3643 2.81872 28.2985 2.86276 28.2431 2.91827C28.1877 2.97378 28.1438 3.03968 28.1138 3.11218C28.0839 3.18469 28.0686 3.26238 28.0687 3.34082C28.0687 3.90918 27.6058 4.37207 27.0365 4.37207H19.4193C18.851 4.37207 18.388 3.90918 18.388 3.34082C18.388 3.18231 18.3251 3.0303 18.213 2.91821C18.1009 2.80613 17.9489 2.74316 17.7904 2.74316C17.6319 2.74316 17.4798 2.80613 17.3678 2.91821C17.2557 3.0303 17.1927 3.18231 17.1927 3.34082C17.1927 4.56836 18.1917 5.56738 19.4193 5.56738H27.0365C28.265 5.56738 29.263 4.56836 29.263 3.34082C29.263 3.01074 28.9964 2.74316 28.6654 2.74316ZM24.2005 16.666H17.0404C15.6703 16.666 14.556 17.7852 14.556 19.1621V22.7363C14.556 23.0664 14.8236 23.334 15.1537 23.334C15.4837 23.334 15.7503 23.0664 15.7503 22.7363V19.1621C15.7503 18.4443 16.3294 17.8613 17.0404 17.8613H24.2004C24.8996 17.8613 25.4895 18.457 25.4895 19.1621V26.3105C25.4895 27.0156 24.8996 27.6113 24.2004 27.6113H22.2903C22.1318 27.6113 21.9798 27.6743 21.8677 27.7864C21.7556 27.8985 21.6926 28.0505 21.6926 28.209C21.6926 28.3675 21.7556 28.5195 21.8677 28.6316C21.9798 28.7437 22.1318 28.8066 22.2903 28.8066H24.2004C25.5705 28.8066 26.6848 27.6875 26.6848 26.3105V19.1621C26.6849 17.7852 25.5706 16.666 24.2005 16.666ZM32.8968 0H13.5589C11.2269 0 9.32943 1.75684 9.32943 3.91504V28.7305C9.23373 28.6934 9.13998 28.6553 9.04037 28.6289C8.82553 28.5693 8.60189 28.54 8.37914 28.54C7.58129 28.54 6.84887 28.915 6.37523 29.5166C6.05662 29.1169 5.61807 28.83 5.12416 28.6982C4.92129 28.6438 4.71215 28.6162 4.50209 28.6162C3.40736 28.6162 2.44643 29.3486 2.16518 30.3984L0.0206436 38.415C-0.00767667 38.5186 -0.00669969 38.6279 0.0225972 38.7314L1.59496 44.292C1.91332 45.3779 2.71596 46.1641 3.79418 46.4473L12.2209 48.709C12.4934 48.7822 12.7698 48.8203 13.0422 48.8203C13.7248 48.8203 14.383 48.5869 14.9465 48.1455L20.7835 43.5869C20.8518 43.5332 20.9154 43.4766 20.9808 43.4209H32.8997C35.2308 43.4072 37.1273 41.6465 37.1273 39.4951V3.91504C37.1273 1.75684 35.2298 0 32.8968 0ZM20.0472 42.6455L14.2112 47.2041C13.7122 47.5937 13.1302 47.7168 12.5305 47.5547L4.1018 45.292C3.42504 45.1143 2.94262 44.6396 2.7434 43.9619L1.21801 38.5645L3.31967 30.708C3.46117 30.1797 3.9476 29.8115 4.50219 29.8115C4.60668 29.8115 4.71215 29.8262 4.81469 29.8535C5.45824 30.0254 5.84213 30.6914 5.66918 31.3359C5.63027 31.4882 5.65289 31.6497 5.73214 31.7854C5.81139 31.9211 5.9409 32.0202 6.09264 32.0611C6.24438 32.1021 6.40615 32.0817 6.54293 32.0042C6.6797 31.9268 6.78049 31.7986 6.82348 31.6475L7.06957 30.7441C7.26 30.0371 8.01195 29.5869 8.72777 29.7822C9.07934 29.877 9.37318 30.1035 9.5558 30.4209C9.73549 30.7334 9.78334 31.0947 9.68959 31.4395C9.60268 31.7578 9.79115 32.085 10.1106 32.1709C10.428 32.2588 10.757 32.0684 10.844 31.75L11.172 30.5439C11.3518 29.8711 11.967 29.4023 12.6681 29.4023C12.8009 29.4023 12.9347 29.4199 13.0647 29.4541C13.758 29.6406 14.218 30.2676 14.218 30.9521C14.218 31.083 14.2014 31.2158 14.1663 31.3477C14.0803 31.667 14.2707 31.9932 14.5891 32.0781C14.9065 32.1621 15.2356 31.9727 15.3215 31.6533L17.5481 23.3223C17.7473 22.5654 18.4398 22.0371 19.2317 22.0371C19.3811 22.0371 19.5315 22.0566 19.6721 22.0938C20.594 22.3467 21.1468 23.3018 20.9045 24.2217L17.8694 35.541V35.543C17.8555 35.5955 17.8486 35.6497 17.8489 35.7041V35.7158C17.8489 35.7158 17.8499 35.7158 17.8499 35.7168C17.8577 35.9707 18.0335 36.1963 18.2943 36.2666L18.3332 36.2754C18.6428 36.335 18.9456 36.1416 19.0286 35.8369C19.2327 35.0879 19.9231 34.5654 20.7082 34.5654C20.8577 34.5654 21.0071 34.585 21.1477 34.6221C22.0715 34.874 22.6243 35.8301 22.3811 36.75L22.3118 37.0098C22.2942 37.0498 22.2844 37.0937 22.2766 37.1387L21.3138 40.7246C21.1009 41.5254 20.6986 42.1367 20.0472 42.6455ZM21.4583 33.4678C20.848 33.3057 20.1948 33.3525 19.6351 33.5723L22.0599 24.5293C22.4701 22.9756 21.5405 21.3662 19.9818 20.9395C19.7367 20.875 19.4837 20.8418 19.2318 20.8418C17.8978 20.8418 16.7298 21.7363 16.3929 23.0156L14.7495 29.165C14.3889 28.7446 13.9096 28.4429 13.3745 28.2998C13.1557 28.2412 12.929 28.2119 12.7036 28.209V7.72363H33.7524V36.6357H23.6117C23.7699 35.2227 22.8763 33.8555 21.4583 33.4678ZM35.932 39.4951C35.932 40.9912 34.5687 42.2158 32.8968 42.2256H21.9788C22.1888 41.8613 22.3538 41.4668 22.4692 41.0332L22.5795 40.6201H23.9311C24.2622 40.6201 24.5288 40.3525 24.5288 40.0225C24.5288 39.6924 24.2622 39.4248 23.9311 39.4248H22.9008L23.3286 37.8311H34.35C34.5085 37.831 34.6605 37.768 34.7726 37.656C34.8846 37.5439 34.9476 37.3919 34.9476 37.2334V7.12598C34.9476 6.96749 34.8846 6.81548 34.7726 6.7034C34.6605 6.59132 34.5085 6.52835 34.35 6.52832H12.1068C11.7757 6.52832 11.5091 6.7959 11.5091 7.12598V28.4687C11.1257 28.6463 10.7885 28.91 10.5238 29.2393V3.91504C10.5238 2.41602 11.8861 1.19629 13.5589 1.19629H32.8968C34.5707 1.19629 35.932 2.41602 35.932 3.91504V39.4951ZM28.6654 2.74316C28.5869 2.74316 28.5093 2.75863 28.4368 2.78868C28.3643 2.81872 28.2985 2.86276 28.2431 2.91827C28.1877 2.97378 28.1438 3.03968 28.1138 3.11218C28.0839 3.18469 28.0686 3.26238 28.0687 3.34082C28.0687 3.90918 27.6058 4.37207 27.0365 4.37207H19.4193C18.851 4.37207 18.388 3.90918 18.388 3.34082C18.388 3.18231 18.3251 3.0303 18.213 2.91821C18.1009 2.80613 17.9489 2.74316 17.7904 2.74316C17.6319 2.74316 17.4798 2.80613 17.3678 2.91821C17.2557 3.0303 17.1927 3.18231 17.1927 3.34082C17.1927 4.56836 18.1917 5.56738 19.4193 5.56738H27.0365C28.265 5.56738 29.263 4.56836 29.263 3.34082C29.263 3.01074 28.9964 2.74316 28.6654 2.74316ZM26.6849 26.3105V19.1621C26.6849 17.7852 25.5706 16.666 24.2005 16.666H17.0404C15.6703 16.666 14.556 17.7852 14.556 19.1621V22.7363C14.556 23.0664 14.8236 23.334 15.1537 23.334C15.4837 23.334 15.7503 23.0664 15.7503 22.7363V19.1621C15.7503 18.4443 16.3294 17.8613 17.0404 17.8613H24.2004C24.8996 17.8613 25.4895 18.457 25.4895 19.1621V26.3105C25.4895 27.0156 24.8996 27.6113 24.2004 27.6113H22.2903C22.1318 27.6113 21.9798 27.6743 21.8677 27.7864C21.7556 27.8985 21.6926 28.0505 21.6926 28.209C21.6926 28.3675 21.7556 28.5195 21.8677 28.6316C21.9798 28.7437 22.1318 28.8066 22.2903 28.8066H24.2004C25.5706 28.8066 26.6849 27.6875 26.6849 26.3105ZM24.2005 16.666H17.0404C15.6703 16.666 14.556 17.7852 14.556 19.1621V22.7363C14.556 23.0664 14.8236 23.334 15.1537 23.334C15.4837 23.334 15.7503 23.0664 15.7503 22.7363V19.1621C15.7503 18.4443 16.3294 17.8613 17.0404 17.8613H24.2004C24.8996 17.8613 25.4895 18.457 25.4895 19.1621V26.3105C25.4895 27.0156 24.8996 27.6113 24.2004 27.6113H22.2903C22.1318 27.6113 21.9798 27.6743 21.8677 27.7864C21.7556 27.8985 21.6926 28.0505 21.6926 28.209C21.6926 28.3675 21.7556 28.5195 21.8677 28.6316C21.9798 28.7437 22.1318 28.8066 22.2903 28.8066H24.2004C25.5705 28.8066 26.6848 27.6875 26.6848 26.3105V19.1621C26.6849 17.7852 25.5706 16.666 24.2005 16.666ZM28.6654 2.74316C28.5869 2.74316 28.5093 2.75863 28.4368 2.78868C28.3643 2.81872 28.2985 2.86276 28.2431 2.91827C28.1877 2.97378 28.1438 3.03968 28.1138 3.11218C28.0839 3.18469 28.0686 3.26238 28.0687 3.34082C28.0687 3.90918 27.6058 4.37207 27.0365 4.37207H19.4193C18.851 4.37207 18.388 3.90918 18.388 3.34082C18.388 3.18231 18.3251 3.0303 18.213 2.91821C18.1009 2.80613 17.9489 2.74316 17.7904 2.74316C17.6319 2.74316 17.4798 2.80613 17.3678 2.91821C17.2557 3.0303 17.1927 3.18231 17.1927 3.34082C17.1927 4.56836 18.1917 5.56738 19.4193 5.56738H27.0365C28.265 5.56738 29.263 4.56836 29.263 3.34082C29.263 3.01074 28.9964 2.74316 28.6654 2.74316ZM24.2005 16.666H17.0404C15.6703 16.666 14.556 17.7852 14.556 19.1621V22.7363C14.556 23.0664 14.8236 23.334 15.1537 23.334C15.4837 23.334 15.7503 23.0664 15.7503 22.7363V19.1621C15.7503 18.4443 16.3294 17.8613 17.0404 17.8613H24.2004C24.8996 17.8613 25.4895 18.457 25.4895 19.1621V26.3105C25.4895 27.0156 24.8996 27.6113 24.2004 27.6113H22.2903C22.1318 27.6113 21.9798 27.6743 21.8677 27.7864C21.7556 27.8985 21.6926 28.0505 21.6926 28.209C21.6926 28.3675 21.7556 28.5195 21.8677 28.6316C21.9798 28.7437 22.1318 28.8066 22.2903 28.8066H24.2004C25.5705 28.8066 26.6848 27.6875 26.6848 26.3105V19.1621C26.6849 17.7852 25.5706 16.666 24.2005 16.666Z" fill="black"/>
</svg>
