<svg width="12" height="12" viewBox="0 0 12 12" fill="none" xmlns="http://www.w3.org/2000/svg">
<path d="M5.99334 0.168495C5.83877 0.170247 5.6912 0.233413 5.58293 0.344159C5.47466 0.454905 5.41453 0.604204 5.4157 0.759361V5.44881C5.4157 5.60435 5.47726 5.75352 5.58683 5.8635C5.6964 5.97348 5.845 6.03527 5.99996 6.03527C6.15491 6.03527 6.30352 5.97348 6.41309 5.8635C6.52265 5.75352 6.58421 5.60435 6.58421 5.44881V0.759361C6.5848 0.681414 6.5699 0.604132 6.54039 0.532032C6.51087 0.459931 6.46734 0.39446 6.41232 0.339446C6.35731 0.284432 6.29192 0.240978 6.21998 0.211625C6.14804 0.182273 6.07099 0.16761 5.99334 0.168495ZM9.39744 1.34141C9.37834 1.34047 9.35921 1.34047 9.34011 1.34141C9.22441 1.35107 9.1142 1.39511 9.02354 1.46792C8.93288 1.54073 8.86589 1.63899 8.83112 1.75018C8.79634 1.86137 8.79536 1.98044 8.82829 2.0922C8.86122 2.20395 8.92658 2.30332 9.01602 2.37763C10.028 3.23968 10.6674 4.52283 10.6674 5.96251C10.6674 8.56408 8.5861 10.6608 6.00216 10.6608C5.38743 10.6596 4.77896 10.5372 4.21161 10.3006C3.64425 10.0639 3.12915 9.71767 2.6958 9.28166C2.26246 8.84565 1.91937 8.32844 1.6862 7.75965C1.45303 7.19085 1.33435 6.58165 1.33696 5.96692C1.33696 4.53385 1.96752 3.25952 2.96846 2.39527C3.03073 2.34655 3.08252 2.28568 3.12069 2.21632C3.15887 2.14695 3.18265 2.07054 3.19059 1.9917C3.19854 1.91286 3.19048 1.83322 3.1669 1.75759C3.14333 1.68196 3.10473 1.61191 3.05344 1.55167C3.00215 1.49143 2.93922 1.44225 2.86847 1.4071C2.79771 1.37195 2.72059 1.35156 2.64177 1.34715C2.56295 1.34275 2.48405 1.35443 2.40985 1.38148C2.33564 1.40854 2.26767 1.4504 2.21004 1.50456C1.569 2.05696 1.05475 2.74121 0.702408 3.51058C0.350066 4.27995 0.167937 5.1163 0.168461 5.96251C0.166692 7.51408 0.779856 9.00313 1.87367 10.1036C2.96749 11.204 4.45281 11.8261 6.00437 11.8337C7.5557 11.8267 9.0409 11.2046 10.1341 10.1039C11.2274 9.00324 11.8394 7.51385 11.8359 5.96251C11.8359 4.17227 11.0355 2.56283 9.77224 1.48692C9.66838 1.39546 9.53558 1.3439 9.39744 1.34141Z" fill="black"/>
</svg>
