<svg width="50" height="32" viewBox="0 0 50 32" fill="none" xmlns="http://www.w3.org/2000/svg">
<path fill-rule="evenodd" clip-rule="evenodd" d="M47.2656 31.4297H2.73438C1.26953 31.4297 0 30.1602 0 28.5977V3.40234C0 1.83984 1.26953 0.570312 2.73438 0.570312H47.2656C48.7305 0.570312 50 1.83984 50 3.40234V28.5977C50 30.1602 48.7305 31.4297 47.2656 31.4297ZM2.73438 1.83984C1.85547 1.83984 1.17188 2.52344 1.17188 3.40234V28.5977C1.17188 29.4766 1.85547 30.1602 2.73438 30.1602H47.2656C48.0469 30.1602 48.8281 29.4766 48.8281 28.5977V3.40234C48.8281 2.52344 48.0469 1.83984 47.2656 1.83984H2.73438Z" fill="black"/>
<path fill-rule="evenodd" clip-rule="evenodd" d="M5.07814 31.4298C4.98049 31.4298 4.78517 31.3321 4.68752 31.3321C4.4922 31.1368 4.39455 30.7462 4.58986 30.4532C7.32424 26.1563 11.3281 22.3477 16.6016 19.2227C20.8008 16.6837 25.7813 14.6329 31.3477 12.9727C40.7227 10.2384 49.1211 9.55477 49.5117 9.65242C49.8047 9.75008 50 10.043 50 10.4337C49.9024 10.7266 49.6094 10.922 49.3164 10.8243C48.4375 10.8243 40.332 11.5079 31.3477 14.2423C22.9492 16.7813 11.5235 21.7618 5.56642 31.1368C5.46877 31.3321 5.27345 31.4298 5.07814 31.4298Z" fill="black"/>
<path fill-rule="evenodd" clip-rule="evenodd" d="M5.07812 31.4297C4.88281 31.4297 4.6875 31.332 4.58984 31.2344C4.39453 30.9414 4.39453 30.5508 4.58984 30.3555C16.9922 18.4414 38.1836 16.8789 46.0938 16.1953C47.3633 16.0977 48.4375 16 48.9258 16V15.9023C49.2188 15.707 49.6094 15.707 49.8047 15.9023C50 16.0977 50 16.3906 50 16.5859C49.8047 17.0742 49.3164 17.1719 48.5352 17.1719C48.0469 17.2695 47.168 17.3672 46.1914 17.4648C38.3789 18.0508 17.4805 19.6133 5.46875 31.2344C5.37109 31.332 5.17578 31.4297 5.07812 31.4297ZM40.918 8.67578H36.6211C35.4492 8.67578 34.4727 7.69922 34.4727 6.52734C34.4727 5.25781 35.4492 4.28125 36.6211 4.28125H40.918C42.0898 4.28125 43.0664 5.25781 43.0664 6.52734C43.0664 7.69922 42.0898 8.67578 40.918 8.67578ZM36.6211 5.45312C36.0352 5.45312 35.6445 5.94141 35.6445 6.52734C35.6445 7.01562 36.0352 7.50391 36.6211 7.50391H40.918C41.4062 7.50391 41.8945 7.01562 41.8945 6.52734C41.8945 5.94141 41.4062 5.45312 40.918 5.45312H36.6211ZM41.0156 25.082H36.5234C36.1328 25.082 35.8398 24.7891 35.8398 24.4961C35.8398 24.1055 36.1328 23.9102 36.5234 23.9102H41.0156C41.4062 23.9102 41.6016 24.1055 41.6016 24.4961C41.6016 24.7891 41.4062 25.082 41.0156 25.082ZM41.0156 27.7188H36.5234C36.1328 27.7188 35.8398 27.4258 35.8398 27.1328C35.8398 26.7422 36.1328 26.5469 36.5234 26.5469H41.0156C41.4062 26.5469 41.6016 26.7422 41.6016 27.1328C41.6016 27.4258 41.4062 27.7188 41.0156 27.7188ZM11.9141 14.9258C10.5469 14.9258 9.47266 13.9492 9.47266 12.7773C9.47266 12.3867 9.76562 12.0938 10.1562 12.0938C10.4492 12.0938 10.7422 12.3867 10.7422 12.7773C10.7422 13.2656 11.2305 13.7539 11.9141 13.7539C12.5977 13.7539 13.0859 13.2656 13.0859 12.7773C13.0859 12.1914 12.5977 11.8008 11.9141 11.8008C10.5469 11.8008 9.47266 10.8242 9.47266 9.55469C9.47266 8.38281 10.5469 7.40625 11.9141 7.40625C13.1836 7.40625 14.2578 8.38281 14.2578 9.55469C14.2578 9.94531 14.0625 10.1406 13.6719 10.1406C13.3789 10.1406 13.0859 9.94531 13.0859 9.55469C13.0859 9.06641 12.5977 8.57812 11.9141 8.57812C11.2305 8.57812 10.7422 9.06641 10.7422 9.55469C10.7422 10.1406 11.2305 10.5312 11.9141 10.5312C13.1836 10.5312 14.2578 11.5078 14.2578 12.7773C14.2578 13.9492 13.1836 14.9258 11.9141 14.9258Z" fill="black"/>
<path fill-rule="evenodd" clip-rule="evenodd" d="M11.9141 16.4883C11.5234 16.4883 11.3281 16.1953 11.3281 15.8047V14.3398C11.3281 13.9492 11.5234 13.7539 11.9141 13.7539C12.207 13.7539 12.5 13.9492 12.5 14.3398V15.8047C12.5 16.1953 12.207 16.4883 11.9141 16.4883ZM11.9141 8.57812C11.5234 8.57812 11.3281 8.38281 11.3281 7.99219V6.52734C11.3281 6.23438 11.5234 5.94141 11.9141 5.94141C12.207 5.94141 12.5 6.23438 12.5 6.52734V7.99219C12.5 8.38281 12.207 8.57812 11.9141 8.57812Z" fill="black"/>
<path fill-rule="evenodd" clip-rule="evenodd" d="M11.9141 18.832C7.61719 18.832 4.19922 15.4141 4.19922 11.1172C4.19922 6.91797 7.61719 3.5 11.9141 3.5C16.1133 3.5 19.6289 6.91797 19.6289 11.1172C19.6289 15.4141 16.1133 18.832 11.9141 18.832ZM11.9141 4.67188C8.30078 4.67188 5.37109 7.60156 5.37109 11.1172C5.37109 14.7305 8.30078 17.6602 11.9141 17.6602C15.4297 17.6602 18.3594 14.7305 18.3594 11.1172C18.3594 7.60156 15.4297 4.67188 11.9141 4.67188Z" fill="black"/>
</svg>
