<svg width="30" height="35" viewBox="0 0 30 35" fill="none" xmlns="http://www.w3.org/2000/svg">
<path d="M14.3795 16.8596C16.6957 16.8596 18.701 16.0289 20.3401 14.3898C21.9786 12.7511 22.8096 10.746 22.8096 8.42958C22.8096 6.11385 21.9789 4.10853 20.3398 2.4692C18.7008 0.830701 16.6954 0 14.3795 0C12.063 0 10.0578 0.830702 8.41912 2.46948C6.78042 4.10825 5.94937 6.11364 5.94937 8.42958C5.94937 10.746 6.78035 12.7514 8.41919 14.3902C10.0584 16.0287 12.0638 16.8596 14.3794 16.8596H14.3795ZM9.86964 3.91972C11.127 2.66225 12.6022 2.05105 14.3795 2.05105C16.1566 2.05105 17.6319 2.66225 18.8896 3.91972C20.147 5.17739 20.7585 6.65272 20.7585 8.42951C20.7585 10.2069 20.147 11.682 18.8896 12.9397C17.6319 14.1974 16.1566 14.8086 14.3795 14.8086C12.6026 14.8086 11.1277 14.1971 9.86964 12.9397C8.6119 11.6823 8.00042 10.2069 8.00042 8.42958C8.00042 6.65272 8.6119 5.17739 9.86964 3.91972ZM29.1299 26.9132C29.0826 26.2313 28.987 25.4873 28.8462 24.7017C28.7042 23.9102 28.5213 23.162 28.3023 22.4782C28.0759 21.7713 27.7685 21.0734 27.388 20.4044C26.9936 19.7102 26.5301 19.1056 26.0099 18.6081C25.4659 18.0877 24.8 17.6693 24.0298 17.364C23.2624 17.0605 22.4119 16.9067 21.5022 16.9067C21.1449 16.9067 20.7994 17.0532 20.1321 17.4877C19.6577 17.7966 19.182 18.1033 18.7048 18.4078C18.2463 18.7 17.6252 18.9737 16.858 19.2215C16.1095 19.4637 15.3496 19.5866 14.5992 19.5866C13.8494 19.5866 13.0894 19.4637 12.3404 19.2215C11.5741 18.9739 10.9527 18.7003 10.495 18.4081C9.96384 18.0687 9.48327 17.759 9.06642 17.4874C8.39964 17.053 8.05409 16.9063 7.69684 16.9063C6.78677 16.9063 5.93659 17.0604 5.16939 17.3643C4.39981 17.669 3.73358 18.0874 3.1891 18.6084C2.66895 19.1061 2.20541 19.7104 1.81125 20.4044C1.43131 21.0733 1.12369 21.7711 0.897215 22.4784C0.678465 23.1623 0.495604 23.9102 0.353554 24.7017C0.212529 25.4862 0.117236 26.2305 0.0699315 26.9141C0.0234472 27.5824 0 28.278 0 28.9808C0 30.8079 0.58078 32.2869 1.72607 33.3777C2.85721 34.4542 4.35366 34.9999 6.17393 34.9999H23.0267C24.8464 34.9999 26.3428 34.4542 27.4743 33.3778C28.6198 32.2877 29.2006 30.8081 29.2006 28.9806C29.2003 28.2754 29.1766 27.5797 29.1299 26.9132ZM26.0601 31.8917C25.3127 32.6031 24.3204 32.9489 23.0263 32.9489H6.174C4.87976 32.9489 3.88745 32.6031 3.14029 31.892C2.40734 31.1942 2.05112 30.2418 2.05112 28.9808C2.05112 28.325 2.07272 27.6775 2.11606 27.0558C2.15817 26.4459 2.24444 25.7759 2.37241 25.0641C2.49867 24.361 2.65938 23.7012 2.85058 23.1039C3.03406 22.531 3.28425 21.9639 3.59453 21.4176C3.89067 20.8968 4.23137 20.4501 4.60734 20.0902C4.95905 19.7534 5.40236 19.4779 5.92463 19.2712C6.40765 19.08 6.95056 18.9753 7.53989 18.9595C7.61166 18.9978 7.73963 19.0707 7.94683 19.2057C8.36847 19.4805 8.85444 19.794 9.39174 20.1371C9.9974 20.5233 10.7776 20.872 11.7098 21.1729C12.6628 21.4811 13.6348 21.6375 14.5996 21.6375C15.5644 21.6375 16.5366 21.4811 17.4891 21.1732C18.4221 20.8717 19.202 20.5233 19.8085 20.1366C20.3583 19.7852 20.8307 19.4808 21.2523 19.2057C21.4595 19.0709 21.5874 18.9977 21.6593 18.9596C22.2489 18.9753 22.7917 19.08 23.275 19.2712C23.7971 19.4779 24.2404 19.7537 24.592 20.0901C24.968 20.4498 25.3087 20.8966 25.6048 21.4178C25.9154 21.9639 26.1659 22.5313 26.3491 23.1036C26.5405 23.7017 26.7015 24.3613 26.8276 25.0638C26.9552 25.777 27.0418 26.4473 27.0839 27.0561V27.0567C27.1275 27.6759 27.1494 28.3231 27.1496 28.9808C27.1494 30.2421 26.7931 31.1943 26.0602 31.8917H26.0601Z" fill="black"/>
</svg>
