<svg width="14" height="14" viewBox="0 0 14 14" fill="none" xmlns="http://www.w3.org/2000/svg">
<g clip-path="url(#clip0_903_169)">
<path d="M9.91667 12.8333C8.30842 12.8333 7 11.5249 7 9.91667C7 8.30842 8.30842 7 9.91667 7C11.5249 7 12.8333 8.30842 12.8333 9.91667C12.8333 11.5249 11.5249 12.8333 9.91667 12.8333ZM9.91667 7.875C8.79083 7.875 7.875 8.79083 7.875 9.91667C7.875 11.0425 8.79083 11.9583 9.91667 11.9583C11.0425 11.9583 11.9583 11.0425 11.9583 9.91667C11.9583 8.79083 11.0425 7.875 9.91667 7.875Z" fill="black"/>
<path d="M13.5625 14C13.505 14.0001 13.4481 13.9889 13.395 13.9668C13.342 13.9448 13.2938 13.9125 13.2533 13.8717L11.3575 11.9758C11.3169 11.9352 11.2846 11.887 11.2626 11.8339C11.2406 11.7808 11.2293 11.7238 11.2293 11.6664C11.2293 11.6089 11.2406 11.552 11.2626 11.4989C11.2846 11.4458 11.3169 11.3976 11.3575 11.3569C11.3981 11.3163 11.4464 11.284 11.4995 11.262C11.5526 11.2401 11.6095 11.2287 11.667 11.2287C11.7244 11.2287 11.7813 11.2401 11.8344 11.262C11.8875 11.284 11.9358 11.3163 11.9764 11.3569L13.8723 13.2528C13.9336 13.3139 13.9754 13.392 13.9923 13.4769C14.0093 13.5619 14.0006 13.65 13.9674 13.73C13.9343 13.8101 13.8781 13.8785 13.806 13.9265C13.7339 13.9746 13.6491 14.0002 13.5625 14ZM6.1425 12.25H1.60417C1.17881 12.2497 0.770964 12.0806 0.470191 11.7798C0.169418 11.479 0.000309013 11.0712 0 10.6458L0 1.60417C0.000309013 1.17881 0.169418 0.770964 0.470191 0.470191C0.770964 0.169418 1.17881 0.000309013 1.60417 0L8.3125 0C8.73786 0.000309013 9.1457 0.169418 9.44648 0.470191C9.74725 0.770964 9.91636 1.17881 9.91667 1.60417V5.71083C9.91667 5.82687 9.87057 5.93815 9.78853 6.02019C9.70648 6.10224 9.5952 6.14833 9.47917 6.14833C9.36314 6.14833 9.25186 6.10224 9.16981 6.02019C9.08776 5.93815 9.04167 5.82687 9.04167 5.71083V1.60417C9.04167 1.20225 8.71442 0.875 8.3125 0.875H1.60417C1.20225 0.875 0.875 1.20225 0.875 1.60417V10.6458C0.875 11.0478 1.20225 11.375 1.60417 11.375H6.1425C6.25853 11.375 6.36981 11.4211 6.45186 11.5031C6.53391 11.5852 6.58 11.6965 6.58 11.8125C6.58 11.9285 6.53391 12.0398 6.45186 12.1219C6.36981 12.2039 6.25853 12.25 6.1425 12.25Z" fill="black"/>
<path d="M7.72917 5.54159H2.1875C2.07147 5.54159 1.96019 5.49549 1.87814 5.41344C1.79609 5.3314 1.75 5.22012 1.75 5.10409C1.75 4.98805 1.79609 4.87677 1.87814 4.79473C1.96019 4.71268 2.07147 4.66659 2.1875 4.66659H7.72917C7.8452 4.66659 7.95648 4.71268 8.03853 4.79473C8.12057 4.87677 8.16667 4.98805 8.16667 5.10409C8.16667 5.22012 8.12057 5.3314 8.03853 5.41344C7.95648 5.49549 7.8452 5.54159 7.72917 5.54159ZM5.39583 7.87492H2.1875C2.07147 7.87492 1.96019 7.82883 1.87814 7.74678C1.79609 7.66473 1.75 7.55345 1.75 7.43742C1.75 7.32139 1.79609 7.21011 1.87814 7.12806C1.96019 7.04601 2.07147 6.99992 2.1875 6.99992H5.39583C5.51187 6.99992 5.62315 7.04601 5.70519 7.12806C5.78724 7.21011 5.83333 7.32139 5.83333 7.43742C5.83333 7.55345 5.78724 7.66473 5.70519 7.74678C5.62315 7.82883 5.51187 7.87492 5.39583 7.87492ZM4.8125 3.20825H2.1875C2.07147 3.20825 1.96019 3.16216 1.87814 3.08011C1.79609 2.99806 1.75 2.88678 1.75 2.77075C1.75 2.65472 1.79609 2.54344 1.87814 2.46139C1.96019 2.37935 2.07147 2.33325 2.1875 2.33325H4.8125C4.92853 2.33325 5.03981 2.37935 5.12186 2.46139C5.20391 2.54344 5.25 2.65472 5.25 2.77075C5.25 2.88678 5.20391 2.99806 5.12186 3.08011C5.03981 3.16216 4.92853 3.20825 4.8125 3.20825Z" fill="black"/>
</g>
<defs>
<clipPath id="clip0_903_169">
<rect width="14" height="14" fill="white"/>
</clipPath>
</defs>
</svg>
