<svg width="48" height="44" viewBox="0 0 48 44" fill="none" xmlns="http://www.w3.org/2000/svg">
<path d="M3.6875 6.375V37.625C3.6875 37.8322 3.76981 38.0309 3.91632 38.1774C4.06284 38.3239 4.26155 38.4062 4.46875 38.4062H23.2188C23.426 38.4062 23.6247 38.3239 23.7712 38.1774C23.9177 38.0309 24 37.8322 24 37.625V32.2484H22.4375V36.8438H5.25V7.15625H10.3953L10.9477 7.70859C11.0941 7.85512 11.2928 7.93746 11.5 7.9375H16.1875C16.3947 7.93746 16.5934 7.85512 16.7398 7.70859L17.2922 7.15625H22.4375V11.8898H24V6.375C24 6.1678 23.9177 5.96909 23.7712 5.82257C23.6247 5.67606 23.426 5.59375 23.2188 5.59375H16.9688C16.7616 5.59379 16.5629 5.67613 16.4164 5.82266L15.8641 6.375H11.8234L11.2711 5.82266C11.1246 5.67613 10.9259 5.59379 10.7188 5.59375H4.46875C4.26155 5.59375 4.06284 5.67606 3.91632 5.82257C3.76981 5.96909 3.6875 6.1678 3.6875 6.375ZM11.5 3.25H16.1875V4.8125H11.5V3.25ZM17.75 3.25H19.3125V4.8125H17.75V3.25ZM8.375 3.25H9.9375V4.8125H8.375V3.25ZM12.2812 39.1875C12.074 39.1875 11.8753 39.2698 11.7288 39.4163C11.5823 39.5628 11.5 39.7615 11.5 39.9688C11.5 40.176 11.5823 40.3747 11.7288 40.5212C11.8753 40.6677 12.074 40.75 12.2812 40.75H15.4062C15.6135 40.75 15.8122 40.6677 15.9587 40.5212C16.1052 40.3747 16.1875 40.176 16.1875 39.9688C16.1875 39.7615 16.1052 39.5628 15.9587 39.4163C15.8122 39.2698 15.6135 39.1875 15.4062 39.1875H12.2812Z" fill="black"/>
<path d="M27.125 11.8438V4.8125C27.1238 3.77688 26.7118 2.78403 25.9795 2.05173C25.2472 1.31944 24.2544 0.907491 23.2188 0.90625H20.8805V2.46875H23.2188C23.8404 2.46875 24.4365 2.71568 24.876 3.15522C25.3156 3.59476 25.5625 4.1909 25.5625 4.8125V11.8438H27.125ZM4.46875 43.0938H6.79687V41.5312H4.46875C3.84715 41.5312 3.25101 41.2843 2.81147 40.8448C2.37193 40.4052 2.125 39.8091 2.125 39.1875V4.8125C2.125 4.1909 2.37193 3.59476 2.81147 3.15522C3.25101 2.71568 3.84715 2.46875 4.46875 2.46875H19.3125V0.90625H4.46875C3.43313 0.907491 2.44028 1.31944 1.70798 2.05173C0.975689 2.78403 0.563741 3.77688 0.5625 4.8125V39.1875C0.563741 40.2231 0.975689 41.216 1.70798 41.9483C2.44028 42.6806 3.43313 43.0925 4.46875 43.0938ZM27.125 39.1875V32.2023H25.5625V39.1875C25.5625 39.8091 25.3156 40.4052 24.876 40.8448C24.4365 41.2843 23.8404 41.5312 23.2188 41.5312H8.35703V43.0938H23.2188C24.2544 43.0925 25.2472 42.6806 25.9795 41.9483C26.7118 41.216 27.1238 40.2231 27.125 39.1875Z" fill="black"/>
<path d="M6.8125 22H8.375V25.125H6.8125V22ZM9.9375 20.4375H11.5V25.125H9.9375V20.4375ZM13.0625 18.875H14.625V25.125H13.0625V18.875ZM29.4688 16.5312H20.0938C19.8865 16.5312 19.6878 16.6136 19.5413 16.7601C19.3948 16.9066 19.3125 17.1053 19.3125 17.3125V26.6875C19.3125 26.8947 19.3948 27.0934 19.5413 27.2399C19.6878 27.3864 19.8865 27.4688 20.0938 27.4688H29.4688C29.676 27.4688 29.8747 27.3864 30.0212 27.2399C30.1677 27.0934 30.25 26.8947 30.25 26.6875V17.3125C30.25 17.1053 30.1677 16.9066 30.0212 16.7601C29.8747 16.6136 29.676 16.5312 29.4688 16.5312ZM28.6875 22.7812H25.5625V18.0938H28.6875V22.7812ZM24 22.7812H20.875V21.2188H24V22.7812ZM24 18.0938V19.6562H20.875V18.0938H24ZM20.875 24.3438H24V25.9062H20.875V24.3438ZM25.5625 25.9062V24.3438H28.6875V25.9062H25.5625Z" fill="black"/>
<path d="M37.2812 13.4062H18.5312C17.9096 13.4063 17.3135 13.6532 16.874 14.0927C16.4344 14.5323 16.1875 15.1284 16.1875 15.75V28.25C16.1875 28.8716 16.4344 29.4677 16.874 29.9073C17.3135 30.3468 17.9096 30.5938 18.5312 30.5938H40.4062C41.0279 30.5938 41.624 30.3468 42.0635 29.9073C42.5031 29.4677 42.75 28.8716 42.75 28.25V18.875C42.75 18.6678 42.6676 18.4691 42.5211 18.3227L37.8336 13.6352C37.6871 13.4886 37.4884 13.4063 37.2812 13.4062ZM17.75 28.25V15.75C17.75 15.5428 17.8323 15.3441 17.9788 15.1976C18.1253 15.0511 18.324 14.9688 18.5312 14.9688H31.8125V29.0312H18.5312C18.324 29.0312 18.1253 28.9489 17.9788 28.8024C17.8323 28.6559 17.75 28.4572 17.75 28.25ZM41.1875 28.25C41.1875 28.4572 41.1052 28.6559 40.9587 28.8024C40.8122 28.9489 40.6135 29.0312 40.4062 29.0312H33.375V14.9688H36.9578L41.1875 19.1984V28.25Z" fill="black"/>
<path d="M34.9375 22.7812H36.5V24.3437H34.9375V22.7812ZM38.0625 22.7812H39.625V24.3437H38.0625V22.7812ZM34.9375 25.9062H39.625V27.4687H34.9375V25.9062ZM34.9375 19.6562H39.625V21.2187H34.9375V19.6562ZM39.5469 13.5969L41.0594 13.2062C40.8851 12.5353 40.5354 11.9229 40.0462 11.4318C39.557 10.9407 38.946 10.5886 38.2758 10.4117L37.8813 11.9219C38.2823 12.0286 38.6479 12.2399 38.9405 12.5342C39.2332 12.8285 39.4424 13.1952 39.5469 13.5969ZM42.707 13.4984L44.2578 13.3031C44.0637 11.7575 43.3611 10.3203 42.2606 9.21784C41.1601 8.11535 39.7242 7.41016 38.1789 7.21326L37.9844 8.76326C39.1853 8.91694 40.301 9.46555 41.1559 10.3228C42.0109 11.18 42.5565 12.2971 42.707 13.4984Z" fill="black"/>
<path d="M45.8454 13.4656L47.4017 13.3359C47.2088 10.9441 46.172 8.6988 44.4764 7.00093C42.7808 5.30306 40.5369 4.26323 38.1454 4.06714L38.0142 5.62495C40.0374 5.79056 41.9359 6.67006 43.3704 8.10635C44.805 9.54263 45.6822 11.4421 45.8454 13.4656Z" fill="black"/>
</svg>
