<svg width="47" height="47" viewBox="0 0 47 47" fill="none" xmlns="http://www.w3.org/2000/svg">
<path d="M9.375 16.4062C9.1678 16.4062 8.96909 16.3239 8.82257 16.1774C8.67606 16.0309 8.59375 15.8322 8.59375 15.625V4.6875C8.59375 4.4803 8.67606 4.28159 8.82257 4.13507C8.96909 3.98856 9.1678 3.90625 9.375 3.90625C9.5822 3.90625 9.78091 3.98856 9.92743 4.13507C10.0739 4.28159 10.1562 4.4803 10.1562 4.6875V15.625C10.1562 15.8322 10.0739 16.0309 9.92743 16.1774C9.78091 16.3239 9.5822 16.4062 9.375 16.4062ZM42.0195 46.875H13.2812C12.0384 46.8738 10.8469 46.3795 9.96806 45.5007C9.08925 44.6219 8.59499 43.4303 8.59375 42.1875V39.0625C8.59375 38.8553 8.67606 38.6566 8.82257 38.5101C8.96909 38.3636 9.1678 38.2812 9.375 38.2812C9.5822 38.2812 9.78091 38.3636 9.92743 38.5101C10.0739 38.6566 10.1562 38.8553 10.1562 39.0625V42.1875C10.1563 43.0163 10.4855 43.8112 11.0715 44.3972C11.6576 44.9833 12.4524 45.3125 13.2812 45.3125C14.1101 45.3125 14.9049 44.9833 15.491 44.3972C16.077 43.8112 16.4062 43.0163 16.4062 42.1875C16.4075 41.7078 16.2973 41.2345 16.0844 40.8047C15.916 40.4623 15.8383 40.0825 15.8589 39.7015C15.8794 39.3205 15.9974 38.9512 16.2016 38.6289C16.4134 38.2836 16.7104 37.9985 17.064 37.8008C17.4176 37.6031 17.816 37.4996 18.2211 37.5H42.1875C42.8417 37.4999 43.4887 37.6368 44.0869 37.9018C44.685 38.1668 45.221 38.5541 45.6605 39.0388C46.1 39.5234 46.4331 40.0947 46.6385 40.7158C46.8439 41.337 46.917 41.9942 46.8531 42.6453C46.7092 43.8216 46.1365 44.9035 45.2447 45.6839C44.3528 46.4643 43.2045 46.8884 42.0195 46.875ZM16.743 45.3125H42.0195C42.8166 45.3293 43.5919 45.0517 44.1973 44.5329C44.8026 44.014 45.1955 43.2903 45.3008 42.5C45.3445 42.0651 45.2965 41.6259 45.1599 41.2107C45.0233 40.7956 44.8011 40.4137 44.5077 40.0897C44.2143 39.7658 43.8562 39.507 43.4565 39.33C43.0569 39.1531 42.6246 39.0619 42.1875 39.0625H18.2211C18.0821 39.064 17.9458 39.1006 17.8248 39.1689C17.7038 39.2372 17.602 39.3349 17.5289 39.4531C17.4646 39.5495 17.4267 39.661 17.4191 39.7766C17.4114 39.8921 17.4342 40.0077 17.4852 40.1117C17.9024 40.9518 18.0549 41.8988 17.9223 42.8275C17.7898 43.7561 17.3786 44.6226 16.743 45.3125ZM29.9219 23.4375H21.875C21.6678 23.4375 21.4691 23.3552 21.3226 23.2087C21.1761 23.0622 21.0938 22.8634 21.0938 22.6562C21.0938 22.449 21.1761 22.2503 21.3226 22.1038C21.4691 21.9573 21.6678 21.875 21.875 21.875H29.9219C30.1291 21.875 30.3278 21.9573 30.4743 22.1038C30.6208 22.2503 30.7031 22.449 30.7031 22.6562C30.7031 22.8634 30.6208 23.0622 30.4743 23.2087C30.3278 23.3552 30.1291 23.4375 29.9219 23.4375ZM35.9375 28.125H22.6562C22.449 28.125 22.2503 28.0427 22.1038 27.8962C21.9573 27.7497 21.875 27.5509 21.875 27.3437C21.875 27.1365 21.9573 26.9378 22.1038 26.7913C22.2503 26.6448 22.449 26.5625 22.6562 26.5625H35.9375C36.1447 26.5625 36.3434 26.6448 36.4899 26.7913C36.6364 26.9378 36.7188 27.1365 36.7188 27.3437C36.7188 27.5509 36.6364 27.7497 36.4899 27.8962C36.3434 28.0427 36.1447 28.125 35.9375 28.125ZM35.9375 32.8125H22.6562C22.449 32.8125 22.2503 32.7302 22.1038 32.5837C21.9573 32.4372 21.875 32.2384 21.875 32.0312C21.875 31.824 21.9573 31.6253 22.1038 31.4788C22.2503 31.3323 22.449 31.25 22.6562 31.25H35.9375C36.1447 31.25 36.3434 31.3323 36.4899 31.4788C36.6364 31.6253 36.7188 31.824 36.7188 32.0312C36.7188 32.2384 36.6364 32.4372 36.4899 32.5837C36.3434 32.7302 36.1447 32.8125 35.9375 32.8125Z" fill="black"/>
<path d="M42.1875 39.0625C41.9803 39.0625 41.7816 38.9802 41.6351 38.8337C41.4886 38.6872 41.4062 38.4885 41.4062 38.2812V4.6875C41.4062 3.8587 41.077 3.06384 40.491 2.47779C39.9049 1.89174 39.1101 1.5625 38.2812 1.5625H5.46875C5.26155 1.5625 5.06284 1.48019 4.91632 1.33368C4.76981 1.18716 4.6875 0.98845 4.6875 0.78125C4.6875 0.57405 4.76981 0.375336 4.91632 0.228823C5.06284 0.08231 5.26155 0 5.46875 0H38.2812C39.5241 0.00124096 40.7156 0.4955 41.5944 1.37431C42.4733 2.25312 42.9675 3.44468 42.9688 4.6875V38.2812C42.9688 38.4885 42.8864 38.6872 42.7399 38.8337C42.5934 38.9802 42.3947 39.0625 42.1875 39.0625Z" fill="black"/>
<path d="M9.375 9.375H5.46875C4.54165 9.375 3.63537 9.10008 2.86452 8.58502C2.09366 8.06995 1.49285 7.33786 1.13807 6.48133C0.783281 5.6248 0.690453 4.6823 0.871321 3.77302C1.05219 2.86373 1.49863 2.0285 2.15419 1.37294C2.80975 0.71738 3.64498 0.270939 4.55427 0.0900711C5.46355 -0.0907971 6.40605 0.00203103 7.26258 0.356817C8.11911 0.711603 8.8512 1.31241 9.36627 2.08327C9.88133 2.85412 10.1563 3.7604 10.1563 4.6875C10.1563 4.8947 10.0739 5.09342 9.92743 5.23993C9.78092 5.38644 9.5822 5.46875 9.375 5.46875C9.1678 5.46875 8.96909 5.38644 8.82258 5.23993C8.67606 5.09342 8.59375 4.8947 8.59375 4.6875C8.59375 4.06944 8.41047 3.46525 8.06709 2.95135C7.72372 2.43744 7.23566 2.0369 6.66464 1.80038C6.09362 1.56385 5.46529 1.50197 4.8591 1.62255C4.2529 1.74313 3.69608 2.04075 3.25904 2.47779C2.822 2.91483 2.52438 3.47165 2.4038 4.07785C2.28322 4.68404 2.3451 5.31237 2.58163 5.88339C2.81815 6.45441 3.21869 6.94247 3.7326 7.28584C4.2465 7.62922 4.85069 7.8125 5.46875 7.8125H9.375C9.5822 7.8125 9.78092 7.89481 9.92743 8.04133C10.0739 8.18784 10.1563 8.38655 10.1563 8.59375C10.1563 8.80095 10.0739 8.99967 9.92743 9.14618C9.78092 9.29269 9.5822 9.375 9.375 9.375ZM19.5313 16.4063C19.3241 16.4063 19.1253 16.3239 18.9788 16.1774C18.8323 16.0309 18.75 15.8322 18.75 15.625V9.375C18.75 9.1678 18.8323 8.96909 18.9788 8.82258C19.1253 8.67606 19.3241 8.59375 19.5313 8.59375C19.7385 8.59375 19.9372 8.67606 20.0837 8.82258C20.2302 8.96909 20.3125 9.1678 20.3125 9.375V15.625C20.3125 15.8322 20.2302 16.0309 20.0837 16.1774C19.9372 16.3239 19.7385 16.4063 19.5313 16.4063Z" fill="black"/>
<path d="M21.875 10.1563H17.1875C16.9803 10.1563 16.7816 10.074 16.6351 9.92746C16.4886 9.78095 16.4062 9.58224 16.4062 9.37504C16.4062 9.16784 16.4886 8.96912 16.6351 8.82261C16.7816 8.6761 16.9803 8.59379 17.1875 8.59379H21.875C22.0822 8.59379 22.2809 8.6761 22.4274 8.82261C22.5739 8.96912 22.6562 9.16784 22.6562 9.37504C22.6562 9.58224 22.5739 9.78095 22.4274 9.92746C22.2809 10.074 22.0822 10.1563 21.875 10.1563ZM22.6562 16.4063C22.5627 16.406 22.4699 16.3893 22.382 16.3571C22.2858 16.3211 22.1975 16.2665 22.1224 16.1964C22.0473 16.1263 21.9867 16.0421 21.9442 15.9485C21.9017 15.855 21.878 15.754 21.8746 15.6513C21.8712 15.5486 21.888 15.4462 21.9242 15.35L24.268 9.10004C24.3405 8.90589 24.4872 8.7485 24.6757 8.6625C24.8643 8.5765 25.0793 8.56892 25.2734 8.64144C25.4676 8.71396 25.625 8.86064 25.711 9.0492C25.797 9.23776 25.8046 9.45276 25.732 9.64691L23.3883 15.8969C23.3328 16.0464 23.2329 16.1753 23.1021 16.2663C22.9712 16.3574 22.8157 16.4062 22.6562 16.4063Z" fill="black"/>
<path d="M27.3439 16.4063C27.1849 16.4064 27.0296 16.358 26.8988 16.2676C26.768 16.1771 26.6679 16.0489 26.6119 15.9L24.2682 9.65C24.1956 9.45586 24.2032 9.24085 24.2892 9.05229C24.3752 8.86373 24.5326 8.71705 24.7267 8.64453C24.9209 8.57201 25.1359 8.57959 25.3245 8.66559C25.513 8.75159 25.6597 8.90898 25.7322 9.10313L28.076 15.3531C28.1122 15.4493 28.129 15.5517 28.1256 15.6544C28.1222 15.7571 28.0985 15.8581 28.056 15.9516C28.0135 16.0452 27.9529 16.1294 27.8778 16.1995C27.8026 16.2696 27.7144 16.3242 27.6182 16.3602C27.5301 16.3913 27.4373 16.4069 27.3439 16.4063ZM34.3752 16.4063C34.2539 16.4063 34.1343 16.378 34.0258 16.3238C33.9173 16.2695 33.823 16.1908 33.7502 16.0938L29.0627 9.84375C28.9384 9.67799 28.885 9.46964 28.9143 9.26452C28.9436 9.0594 29.0532 8.87432 29.2189 8.75C29.3847 8.62568 29.5931 8.5723 29.7982 8.60161C30.0033 8.63091 30.1884 8.74049 30.3127 8.90625L35.0002 15.1563C35.0872 15.2723 35.1402 15.4103 35.1533 15.5548C35.1663 15.6993 35.1388 15.8446 35.074 15.9744C35.0091 16.1042 34.9093 16.2133 34.7859 16.2896C34.6625 16.3659 34.5203 16.4063 34.3752 16.4063Z" fill="black"/>
<path d="M29.6875 16.4062C29.5424 16.4062 29.4002 16.3658 29.2768 16.2896C29.1534 16.2133 29.0536 16.1042 28.9887 15.9744C28.9238 15.8446 28.8964 15.6993 28.9094 15.5548C28.9224 15.4103 28.9755 15.2723 29.0625 15.1562L33.75 8.90625C33.8116 8.82417 33.8887 8.75503 33.977 8.70275C34.0652 8.65048 34.163 8.61611 34.2645 8.6016C34.3661 8.58709 34.4695 8.59273 34.5689 8.61819C34.6683 8.64365 34.7617 8.68844 34.8438 8.75C34.9258 8.81156 34.995 8.88868 35.0473 8.97696C35.0995 9.06524 35.1339 9.16295 35.1484 9.26451C35.1629 9.36608 35.1573 9.46951 35.1318 9.56889C35.1063 9.66828 35.0616 9.76167 35 9.84375L30.3125 16.0938C30.2397 16.1908 30.1454 16.2695 30.0369 16.3238C29.9284 16.378 29.8088 16.4062 29.6875 16.4062ZM26.5625 14.8438H23.4375C23.2303 14.8438 23.0316 14.7614 22.8851 14.6149C22.7386 14.4684 22.6563 14.2697 22.6563 14.0625C22.6563 13.8553 22.7386 13.6566 22.8851 13.5101C23.0316 13.3636 23.2303 13.2812 23.4375 13.2812H26.5625C26.7697 13.2812 26.9684 13.3636 27.1149 13.5101C27.2614 13.6566 27.3438 13.8553 27.3438 14.0625C27.3438 14.2697 27.2614 14.4684 27.1149 14.6149C26.9684 14.7614 26.7697 14.8438 26.5625 14.8438ZM10.1563 37.5C8.14754 37.5 6.18393 36.9043 4.51374 35.7884C2.84356 34.6724 1.54181 33.0862 0.773103 31.2304C0.00440055 29.3746 -0.196727 27.3325 0.195154 25.3624C0.587035 23.3922 1.55432 21.5826 2.9747 20.1622C4.39508 18.7418 6.20475 17.7745 8.17487 17.3827C10.145 16.9908 12.1871 17.1919 14.0429 17.9606C15.8987 18.7293 17.4849 20.0311 18.6009 21.7012C19.7169 23.3714 20.3125 25.335 20.3125 27.3438C20.3094 30.0364 19.2384 32.6179 17.3344 34.5219C15.4304 36.4259 12.8489 37.4969 10.1563 37.5ZM10.1563 18.75C8.45657 18.75 6.79506 19.254 5.38182 20.1983C3.96859 21.1426 2.86711 22.4848 2.21666 24.0551C1.56622 25.6254 1.39604 27.3533 1.72763 29.0203C2.05922 30.6873 2.8777 32.2186 4.07956 33.4204C5.28141 34.6223 6.81267 35.4408 8.4797 35.7724C10.1467 36.104 11.8746 35.9338 13.4449 35.2833C15.0152 34.6329 16.3574 33.5314 17.3017 32.1182C18.246 30.7049 18.75 29.0434 18.75 27.3438C18.7473 25.0654 17.841 22.8811 16.23 21.27C14.6189 19.659 12.4346 18.7527 10.1563 18.75Z" fill="black"/>
<path d="M10.1563 32.8125C9.32745 32.8125 8.53259 32.4833 7.94654 31.8972C7.36049 31.3112 7.03125 30.5163 7.03125 29.6875C7.03125 29.4803 7.11356 29.2816 7.26007 29.1351C7.40659 28.9886 7.6053 28.9063 7.8125 28.9063C8.0197 28.9063 8.21842 28.9886 8.36493 29.1351C8.51144 29.2816 8.59375 29.4803 8.59375 29.6875C8.59375 29.9965 8.68539 30.2986 8.85708 30.5556C9.02877 30.8125 9.2728 31.0128 9.55831 31.1311C9.84382 31.2493 10.158 31.2803 10.4611 31.22C10.7642 31.1597 11.0426 31.0109 11.2611 30.7924C11.4796 30.5738 11.6284 30.2954 11.6887 29.9923C11.749 29.6892 11.7181 29.3751 11.5998 29.0896C11.4816 28.8041 11.2813 28.56 11.0243 28.3883C10.7674 28.2166 10.4653 28.125 10.1563 28.125C9.53819 28.125 8.934 27.9417 8.4201 27.5983C7.90619 27.255 7.50565 26.7669 7.26913 26.1959C7.0326 25.6249 6.97072 24.9965 7.0913 24.3903C7.21188 23.7842 7.5095 23.2273 7.94654 22.7903C8.38358 22.3533 8.9404 22.0556 9.54659 21.935C10.1528 21.8145 10.7811 21.8764 11.3521 22.1129C11.9232 22.3494 12.4112 22.7499 12.7546 23.2638C13.098 23.7777 13.2813 24.3819 13.2813 25C13.2813 25.2072 13.1989 25.4059 13.0524 25.5524C12.9059 25.6989 12.7072 25.7813 12.5 25.7813C12.2928 25.7813 12.0941 25.6989 11.9476 25.5524C11.8011 25.4059 11.7188 25.2072 11.7188 25C11.7188 24.691 11.6271 24.3889 11.4554 24.1319C11.2837 23.875 11.0397 23.6747 10.7542 23.5564C10.4687 23.4382 10.1545 23.4072 9.85142 23.4675C9.54833 23.5278 9.26992 23.6766 9.0514 23.8951C8.83288 24.1137 8.68406 24.3921 8.62377 24.6952C8.56349 24.9983 8.59443 25.3124 8.71269 25.5979C8.83095 25.8835 9.03122 26.1275 9.28817 26.2992C9.54513 26.4709 9.84722 26.5625 10.1563 26.5625C10.9851 26.5625 11.7799 26.8917 12.366 27.4778C12.952 28.0638 13.2813 28.8587 13.2813 29.6875C13.2813 30.5163 12.952 31.3112 12.366 31.8972C11.7799 32.4833 10.9851 32.8125 10.1563 32.8125Z" fill="black"/>
<path d="M10.1562 23.4375C9.94905 23.4375 9.75034 23.3552 9.60382 23.2087C9.45731 23.0622 9.375 22.8635 9.375 22.6562V21.0938C9.375 20.8865 9.45731 20.6878 9.60382 20.5413C9.75034 20.3948 9.94905 20.3125 10.1562 20.3125C10.3635 20.3125 10.5622 20.3948 10.7087 20.5413C10.8552 20.6878 10.9375 20.8865 10.9375 21.0938V22.6562C10.9375 22.8635 10.8552 23.0622 10.7087 23.2087C10.5622 23.3552 10.3635 23.4375 10.1562 23.4375ZM10.1562 34.375C9.94905 34.375 9.75034 34.2927 9.60382 34.1462C9.45731 33.9997 9.375 33.801 9.375 33.5938V32.0312C9.375 31.824 9.45731 31.6253 9.60382 31.4788C9.75034 31.3323 9.94905 31.25 10.1562 31.25C10.3635 31.25 10.5622 31.3323 10.7087 31.4788C10.8552 31.6253 10.9375 31.824 10.9375 32.0312V33.5938C10.9375 33.801 10.8552 33.9997 10.7087 34.1462C10.5622 34.2927 10.3635 34.375 10.1562 34.375Z" fill="black"/>
</svg>
