<svg width="50" height="50" viewBox="0 0 50 50" fill="none" xmlns="http://www.w3.org/2000/svg">
<path d="M25 14.0625C23.9184 14.0625 22.8611 13.7418 21.9617 13.1409C21.0624 12.5399 20.3615 11.6858 19.9475 10.6866C19.5336 9.68727 19.4253 8.58769 19.6363 7.52685C19.8473 6.46602 20.3682 5.49158 21.133 4.72676C21.8978 3.96194 22.8723 3.4411 23.9331 3.23008C24.9939 3.01907 26.0935 3.12737 27.0928 3.54129C28.0921 3.9552 28.9462 4.65615 29.5471 5.55548C30.148 6.45481 30.4688 7.51214 30.4688 8.59375C30.4671 10.0436 29.8904 11.4337 28.8652 12.4589C27.8399 13.4841 26.4499 14.0608 25 14.0625ZM25 4.6875C24.2274 4.6875 23.4722 4.9166 22.8298 5.34582C22.1874 5.77505 21.6868 6.38512 21.3911 7.0989C21.0954 7.81267 21.0181 8.59809 21.1688 9.35582C21.3195 10.1136 21.6916 10.8096 22.2379 11.3559C22.7842 11.9022 23.4802 12.2742 24.2379 12.4249C24.9957 12.5757 25.7811 12.4983 26.4949 12.2027C27.2086 11.907 27.8187 11.4063 28.2479 10.7639C28.6772 10.1216 28.9063 9.36634 28.9063 8.59375C28.905 7.55813 28.4931 6.56528 27.7608 5.83299C27.0285 5.10069 26.0356 4.68874 25 4.6875Z" fill="black"/>
<path d="M20.3125 6.25H29.6875V7.8125H20.3125V6.25ZM25 26.5625C23.9184 26.5625 22.8611 26.2418 21.9617 25.6408C21.0624 25.0399 20.3615 24.1858 19.9475 23.1865C19.5336 22.1873 19.4253 21.0877 19.6363 20.0268C19.8473 18.966 20.3682 17.9916 21.133 17.2268C21.8978 16.4619 22.8723 15.9411 23.9331 15.7301C24.9939 15.5191 26.0935 15.6274 27.0928 16.0413C28.0921 16.4552 28.9462 17.1561 29.5471 18.0555C30.148 18.9548 30.4688 20.0121 30.4688 21.0938C30.4671 22.5436 29.8904 23.9337 28.8652 24.9589C27.8399 25.9841 26.4499 26.5608 25 26.5625ZM25 17.1875C24.2274 17.1875 23.4722 17.4166 22.8298 17.8458C22.1874 18.275 21.6868 18.8851 21.3911 19.5989C21.0954 20.3127 21.0181 21.0981 21.1688 21.8558C21.3195 22.6136 21.6916 23.3096 22.2379 23.8559C22.7842 24.4022 23.4802 24.7742 24.2379 24.9249C24.9957 25.0757 25.7811 24.9983 26.4949 24.7027C27.2086 24.407 27.8187 23.9063 28.2479 23.2639C28.6772 22.6216 28.9063 21.8663 28.9063 21.0938C28.905 20.0581 28.4931 19.0653 27.7608 18.333C27.0285 17.6007 26.0356 17.1887 25 17.1875Z" fill="black"/>
<path d="M20.3125 18.75H29.6875V20.3125H20.3125V18.75ZM25 39.0625C23.9184 39.0625 22.8611 38.7418 21.9617 38.1408C21.0624 37.5399 20.3615 36.6858 19.9475 35.6865C19.5336 34.6873 19.4253 33.5877 19.6363 32.5269C19.8473 31.466 20.3682 30.4916 21.133 29.7268C21.8978 28.9619 22.8723 28.4411 23.9331 28.2301C24.9939 28.0191 26.0935 28.1274 27.0928 28.5413C28.0921 28.9552 28.9462 29.6561 29.5471 30.5555C30.148 31.4548 30.4688 32.5121 30.4688 33.5938C30.4671 35.0436 29.8904 36.4337 28.8652 37.4589C27.8399 38.4841 26.4499 39.0608 25 39.0625ZM25 29.6875C24.2274 29.6875 23.4722 29.9166 22.8298 30.3458C22.1874 30.775 21.6868 31.3851 21.3911 32.0989C21.0954 32.8127 21.0181 33.5981 21.1688 34.3558C21.3195 35.1136 21.6916 35.8096 22.2379 36.3559C22.7842 36.9022 23.4802 37.2742 24.2379 37.4249C24.9957 37.5757 25.7811 37.4983 26.4949 37.2027C27.2086 36.907 27.8187 36.4063 28.2479 35.7639C28.6772 35.1216 28.9063 34.3663 28.9063 33.5938C28.905 32.5581 28.4931 31.5653 27.7608 30.833C27.0285 30.1007 26.0356 29.6887 25 29.6875Z" fill="black"/>
<path d="M20.3125 31.25H29.6875V32.8125H20.3125V31.25Z" fill="black"/>
<path d="M32.8125 42.1875H17.1875C16.5659 42.1875 15.9698 41.9406 15.5302 41.501C15.0907 41.0615 14.8438 40.4654 14.8438 39.8438V2.34375C14.8438 1.72215 15.0907 1.12601 15.5302 0.686468C15.9698 0.24693 16.5659 0 17.1875 0L32.8125 0C33.4341 0 34.0302 0.24693 34.4698 0.686468C34.9093 1.12601 35.1562 1.72215 35.1562 2.34375V39.8438C35.1562 40.4654 34.9093 41.0615 34.4698 41.501C34.0302 41.9406 33.4341 42.1875 32.8125 42.1875ZM17.1875 1.5625C16.9803 1.5625 16.7816 1.64481 16.6351 1.79132C16.4886 1.93784 16.4062 2.13655 16.4062 2.34375V39.8438C16.4062 40.051 16.4886 40.2497 16.6351 40.3962C16.7816 40.5427 16.9803 40.625 17.1875 40.625H32.8125C33.0197 40.625 33.2184 40.5427 33.3649 40.3962C33.5114 40.2497 33.5938 40.051 33.5938 39.8438V2.34375C33.5938 2.13655 33.5114 1.93784 33.3649 1.79132C33.2184 1.64481 33.0197 1.5625 32.8125 1.5625H17.1875Z" fill="black"/>
<path d="M37.5 7.8125H35.9375V6.25H37.1766L38.2812 5.14531V4.6875H34.375V3.125H39.0625C39.2697 3.125 39.4684 3.20731 39.6149 3.35382C39.7614 3.50034 39.8438 3.69905 39.8438 3.90625V5.46875C39.8437 5.67593 39.7614 5.87461 39.6148 6.02109L38.0523 7.58359C37.9059 7.73012 37.7072 7.81246 37.5 7.8125Z" fill="black"/>
<path d="M34.3749 14.0625L34.3647 12.5C34.6093 12.4937 36.7187 12.3289 36.7187 8.59375V7.03125H38.2812V8.59375C38.2812 14 34.414 14.0625 34.3749 14.0625ZM37.4999 20.3125H35.9374V18.75H37.1765L38.2812 17.6453V17.1875H34.3749V15.625H39.0624C39.2696 15.625 39.4683 15.7073 39.6148 15.8538C39.7613 16.0003 39.8437 16.199 39.8437 16.4062V17.9688C39.8436 18.1759 39.7613 18.3746 39.6147 18.5211L38.0522 20.0836C37.9058 20.2301 37.7071 20.3125 37.4999 20.3125Z" fill="black"/>
<path d="M34.3749 26.5625L34.3647 25C34.6093 24.9937 36.7187 24.8289 36.7187 21.0938V19.5312H38.2812V21.0938C38.2812 26.5 34.414 26.5625 34.3749 26.5625ZM37.4999 32.8125H35.9374V31.25H37.1765L38.2812 30.1453V29.6875H34.3749V28.125H39.0624C39.2696 28.125 39.4683 28.2073 39.6148 28.3538C39.7613 28.5003 39.8437 28.699 39.8437 28.9062V30.4688C39.8436 30.6759 39.7613 30.8746 39.6147 31.0211L38.0522 32.5836C37.9058 32.7301 37.7071 32.8125 37.4999 32.8125Z" fill="black"/>
<path d="M34.375 39.0625L34.3648 37.5C34.6094 37.4937 36.7188 37.3289 36.7188 33.5938V32.0312H38.2812V33.5938C38.2812 39 34.4141 39.0625 34.375 39.0625ZM14.0625 7.8125H12.5C12.2928 7.81246 12.0941 7.73012 11.9477 7.58359L10.3852 6.02109C10.2386 5.87461 10.1563 5.67593 10.1562 5.46875V3.90625C10.1562 3.69905 10.2386 3.50034 10.3851 3.35382C10.5316 3.20731 10.7303 3.125 10.9375 3.125H15.625V4.6875H11.7188V5.14531L12.8234 6.25H14.0625V7.8125Z" fill="black"/>
<path d="M15.625 14.0625C15.5859 14.0625 11.7188 14 11.7188 8.59375V7.03125H13.2812V8.59375C13.2812 12.3289 15.3906 12.4937 15.6352 12.5L15.625 14.0625ZM14.0625 20.3125H12.5C12.2928 20.3125 12.0941 20.2301 11.9477 20.0836L10.3852 18.5211C10.2386 18.3746 10.1563 18.1759 10.1562 17.9688V16.4062C10.1562 16.199 10.2386 16.0003 10.3851 15.8538C10.5316 15.7073 10.7303 15.625 10.9375 15.625H15.625V17.1875H11.7188V17.6453L12.8234 18.75H14.0625V20.3125Z" fill="black"/>
<path d="M15.625 26.5625C15.5859 26.5625 11.7188 26.5 11.7188 21.0938V19.5312H13.2812V21.0938C13.2812 24.8289 15.3906 24.9937 15.6352 25L15.625 26.5625ZM14.0625 32.8125H12.5C12.2928 32.8125 12.0941 32.7301 11.9477 32.5836L10.3852 31.0211C10.2386 30.8746 10.1563 30.6759 10.1562 30.4688V28.9062C10.1562 28.699 10.2386 28.5003 10.3851 28.3538C10.5316 28.2073 10.7303 28.125 10.9375 28.125H15.625V29.6875H11.7188V30.1453L12.8234 31.25H14.0625V32.8125Z" fill="black"/>
<path d="M15.625 39.0625C15.5859 39.0625 11.7188 39 11.7188 33.5938V32.0312H13.2812V33.5938C13.2812 37.3289 15.3906 37.4937 15.6352 37.5L15.625 39.0625ZM28.125 45.3125H21.875C21.6678 45.3125 21.4691 45.2302 21.3226 45.0837C21.1761 44.9372 21.0938 44.7385 21.0938 44.5312V41.4062H22.6562V43.75H27.3438V41.4062H28.9062V44.5312C28.9062 44.7385 28.8239 44.9372 28.6774 45.0837C28.5309 45.2302 28.3322 45.3125 28.125 45.3125ZM0.78125 48.4375H2.34375V50H0.78125V48.4375ZM3.90625 48.4375H49.2188V50H3.90625V48.4375Z" fill="black"/>
<path d="M22.6562 44.5313H24.2188V49.2188H22.6562V44.5313ZM25.7812 44.5313H27.3438V49.2188H25.7812V44.5313ZM40.625 21.8751H45.3125V23.4376H40.625V21.8751ZM40.0672 19.7618L43.1922 16.6368L44.2961 17.7423L41.1711 20.8673L40.0672 19.7618ZM40.0664 25.5548L41.1711 24.4501L44.2961 27.5751L43.1906 28.679L40.0664 25.5548ZM4.6875 21.8751H9.375V23.4376H4.6875V21.8751ZM5.69531 17.7399L6.8 16.6353L9.925 19.7603L8.81953 20.8642L5.69531 17.7399ZM5.69453 27.5704L8.81953 24.4454L9.92344 25.5501L6.79844 28.6751L5.69453 27.5704Z" fill="black"/>
</svg>
