<svg width="30" height="30" viewBox="0 0 30 30" fill="none" xmlns="http://www.w3.org/2000/svg">
<path d="M26.782 10.9969L26.7718 10.9867L16.2838 0.484921C16.2004 0.402041 16.1084 0.328406 16.0092 0.265297L15.7072 0.100562L15.5013 0.0319014H15.3503C15.1188 -0.0106338 14.8816 -0.0106338 14.6501 0.0319014H14.3482L14.1148 0.155452C13.9847 0.226105 13.8646 0.313817 13.7578 0.41626L3.22858 10.9867C2.52351 11.6862 2.51894 12.8249 3.21842 13.53L3.22858 13.5401C3.93932 14.2182 5.05746 14.2182 5.76826 13.5401L12.0419 7.28022C12.3125 7.01484 12.7471 7.01909 13.0125 7.2898C13.136 7.41572 13.2063 7.58436 13.2087 7.76071V28.2015C13.2087 29.1947 14.0137 29.9999 15.007 30C16.0002 30 16.8053 29.195 16.8055 28.2017V7.76071C16.8108 7.38169 17.1224 7.07867 17.5014 7.08401C17.6777 7.08652 17.8464 7.15673 17.9723 7.28022L24.2185 13.5401C24.931 14.227 26.0594 14.227 26.7719 13.5401C27.477 12.8406 27.4815 11.702 26.782 10.9969Z" fill="black"/>
</svg>
