<svg width="50" height="42" viewBox="0 0 50 42" fill="none" xmlns="http://www.w3.org/2000/svg">
<path d="M49.7468 16.3847C49.4159 15.6029 48.8003 14.9969 48.0133 14.6781L47.1344 14.322V9.6784C47.1344 7.92576 45.7087 6.49998 43.956 6.49998H27.8255L18.5743 2.75222C18.485 2.71602 18.3894 2.69777 18.293 2.69851C18.1967 2.69925 18.1014 2.71897 18.0126 2.75654C17.9239 2.79412 17.8434 2.8488 17.7758 2.91748C17.7082 2.98616 17.6548 3.06749 17.6186 3.15681C17.5824 3.24613 17.5642 3.3417 17.5649 3.43807C17.5656 3.53444 17.5854 3.62971 17.6229 3.71846C17.6605 3.80721 17.7152 3.88768 17.7839 3.95529C17.8526 4.02289 17.9339 4.07631 18.0232 4.11248L23.9167 6.49998H8.57594L10.0962 2.74715C10.4504 1.87283 11.4499 1.44959 12.3241 1.80379L15.3032 3.01062C15.3925 3.04686 15.4881 3.06515 15.5844 3.06442C15.6808 3.0637 15.7761 3.04399 15.8649 3.00641C15.9536 2.96884 16.0341 2.91414 16.1017 2.84543C16.1693 2.77673 16.2227 2.69538 16.2588 2.60603C16.295 2.51672 16.3133 2.42115 16.3125 2.32478C16.3118 2.22842 16.2921 2.13314 16.2545 2.0444C16.2169 1.95566 16.1622 1.87519 16.0936 1.80758C16.0249 1.73997 15.9436 1.68655 15.8543 1.65037L12.8751 0.443532C11.251 -0.214475 9.39391 0.571657 8.7358 2.19597L6.99234 6.49988H6.044C4.29146 6.49988 2.86568 7.92566 2.86568 9.6783V16.6868L0.234336 23.1826C-0.0845118 23.9694 -0.0777735 24.8334 0.253281 25.6152C0.584238 26.397 1.19986 27.0031 1.98678 27.3219L2.86578 27.6779V32.3216C2.86578 34.0742 4.29156 35.5 6.0441 35.5H9.17564C9.37026 35.5 9.5569 35.4227 9.69451 35.2851C9.83212 35.1474 9.90943 34.9608 9.90943 34.7662C9.90943 34.5716 9.83212 34.3849 9.69451 34.2473C9.5569 34.1097 9.37026 34.0324 9.17564 34.0324H6.0441C5.10084 34.0324 4.33336 33.265 4.33336 32.3217V19.2064H13.9769C12.2828 20.5448 10.0225 22.86 9.06949 26.1961C8.96393 26.5657 9.17135 26.9644 9.53434 27.0907C9.9273 27.2274 10.3667 26.9988 10.4808 26.5992C11.4707 23.1341 14.1466 20.8513 15.6549 19.7979V34.0323H12.111C11.9164 34.0323 11.7297 34.1096 11.5921 34.2472C11.4545 34.3848 11.3772 34.5715 11.3772 34.7661C11.3772 34.9607 11.4545 35.1473 11.5921 35.285C11.7297 35.4226 11.9164 35.4999 12.111 35.4999H22.1747L29.4662 38.4537C29.5536 38.4893 29.6471 38.5076 29.7415 38.5076C29.8876 38.5076 30.0305 38.464 30.1517 38.3823C30.2729 38.3006 30.367 38.1846 30.4218 38.0491C30.458 37.9598 30.4763 37.8642 30.4755 37.7678C30.4748 37.6715 30.4551 37.5762 30.4175 37.4875C30.3799 37.3987 30.3253 37.3182 30.2566 37.2506C30.1879 37.183 30.1066 37.1296 30.0172 37.0934L26.0836 35.4999H41.4242L39.904 39.2527C39.5498 40.127 38.5499 40.5503 37.676 40.1961L32.7443 38.1982C32.655 38.162 32.5594 38.1438 32.463 38.1445C32.3667 38.1452 32.2714 38.165 32.1827 38.2025C32.0939 38.2401 32.0134 38.2948 31.9458 38.3635C31.8782 38.4322 31.8248 38.5135 31.7886 38.6028C31.7524 38.6921 31.7342 38.7877 31.7349 38.8841C31.7357 38.9804 31.7554 39.0757 31.793 39.1645C31.8305 39.2532 31.8852 39.3337 31.9539 39.4013C32.0226 39.4689 32.1039 39.5223 32.1932 39.5585L37.1251 41.5563C37.5028 41.7099 37.9067 41.7889 38.3144 41.7889C39.5712 41.7889 40.7641 41.0385 41.2643 39.8039L43.0078 35.5H43.9561C45.7087 35.5 47.1345 34.0742 47.1345 32.3216V25.3131L49.7659 18.8174C50.0845 18.0304 50.0778 17.1666 49.7468 16.3847ZM2.53785 25.9616C2.32932 25.8778 2.13949 25.7534 1.97932 25.5958C1.81916 25.4381 1.69184 25.2502 1.60475 25.043C1.51657 24.8363 1.47027 24.6142 1.46853 24.3894C1.46679 24.1647 1.50963 23.9418 1.59459 23.7338L2.86568 20.596V26.0945L2.53785 25.9616ZM9.12584 15.0103C9.00006 14.7145 8.90973 14.2418 9.57252 13.5542C9.8777 13.2376 10.2643 13.0353 10.7107 13.1027C11.598 13.2364 12.7694 14.262 14.0094 15.9904C14.4402 16.5909 14.8153 17.1873 15.1047 17.6755C12.2924 17.4006 9.66236 16.2728 9.12584 15.0103ZM15.6548 15.7767C14.4899 14.027 12.7419 11.9252 10.9302 11.6515C10.0379 11.5168 9.20318 11.8225 8.51588 12.5355C7.98795 13.0831 7.1898 14.2074 7.77506 15.5844C8.13893 16.4406 8.9608 17.1665 10.0297 17.7386H4.33336V9.6783C4.33336 8.73494 5.10084 7.96756 6.0441 7.96756H15.6549V15.7767H15.6548ZM45.6668 32.3216C45.6668 33.2649 44.8993 34.0323 43.956 34.0323H17.1225V19.7979C18.6308 20.8513 21.3068 23.134 22.2966 26.5992C22.411 26.9996 22.8498 27.2262 23.2431 27.0907C23.6064 26.9655 23.8133 26.565 23.708 26.1961C22.7549 22.86 20.4947 20.5448 18.8005 19.2064H45.6668V32.3216ZM17.6723 17.6754C17.9589 17.192 18.3301 16.6018 18.7574 16.0052C20.0011 14.2679 21.1763 13.2372 22.0663 13.1028C22.5129 13.0351 22.8997 13.2377 23.2049 13.5543C23.8677 14.242 23.7773 14.7147 23.6515 15.0104C23.115 16.2728 20.4846 17.4006 17.6723 17.6754ZM45.6668 17.7387H22.7476C23.8165 17.1665 24.6384 16.4406 25.0023 15.5845C25.5876 14.2075 24.7894 13.0832 24.2615 12.5356C23.5741 11.8224 22.7385 11.517 21.847 11.6516C20.0355 11.9253 18.2874 14.0271 17.1224 15.7768V7.96775H43.9559C44.8992 7.96775 45.6667 8.73513 45.6667 9.67849V17.7387H45.6668ZM48.4055 18.2663L47.1344 21.4041V15.9055L47.4624 16.0384C47.6709 16.1222 47.8607 16.2465 48.0209 16.4042C48.181 16.5619 48.3083 16.7498 48.3953 16.957C48.4835 17.1637 48.5298 17.3859 48.5316 17.6106C48.5333 17.8354 48.4905 18.0582 48.4055 18.2663Z" fill="black"/>
<path d="M37.5161 30.3678V31.0717C37.5161 31.2663 37.5934 31.453 37.731 31.5906C37.8686 31.7282 38.0552 31.8055 38.2498 31.8055C38.4445 31.8055 38.6311 31.7282 38.7687 31.5906C38.9063 31.453 38.9836 31.2663 38.9836 31.0717V30.3879C39.5368 30.2707 39.9158 30.0192 40.1585 29.7907C40.6374 29.34 40.9234 28.6598 40.9234 27.971C40.9234 27.407 40.7477 26.8964 40.4153 26.4944C39.9697 25.9555 39.27 25.6299 38.3355 25.5268C37.4644 25.4307 37.3343 24.9818 37.3343 24.7227C37.3343 24.5699 37.3785 23.8072 38.2498 23.8072C38.8109 23.8072 39.0537 24.1418 39.1136 24.2417C39.169 24.3765 39.2632 24.4918 39.3843 24.573C39.5054 24.6541 39.6478 24.6975 39.7936 24.6975C40.3465 24.6975 40.6655 24.1223 40.4539 23.6379C40.2791 23.2583 39.7982 22.6736 38.9835 22.4411V21.7233C38.9835 21.5287 38.9062 21.342 38.7686 21.2044C38.631 21.0668 38.4444 20.9895 38.2498 20.9895C38.0551 20.9895 37.8685 21.0668 37.7309 21.2044C37.5933 21.342 37.516 21.5287 37.516 21.7233V22.4391C37.0164 22.5827 36.5997 22.8783 36.3072 23.3058C35.8984 23.9032 35.8666 24.5415 35.8666 24.7228C35.8666 25.6493 36.4711 26.7978 38.1746 26.9857C39.4557 27.1271 39.4557 27.7403 39.4557 27.9711C39.4557 28.1963 39.3761 28.5118 39.1527 28.7219C38.9401 28.9219 38.6106 29.0101 38.1737 28.9833C37.2477 28.9268 37.0377 28.3499 37.0168 28.2844L37.0165 28.2845C36.9371 27.9643 36.6485 27.7266 36.3037 27.7266C35.7991 27.7266 35.4389 28.245 35.6152 28.7183C35.6901 28.9533 36.1106 30.0487 37.5161 30.3678Z" fill="black"/>
</svg>
