<svg width="14" height="14" viewBox="0 0 14 14" fill="none" xmlns="http://www.w3.org/2000/svg">
<path d="M12.6204 2.47895C12.545 1.50508 11.729 0.735596 10.7362 0.735596H1.8906C0.848121 0.735596 0 1.58372 0 2.6262V11.3736C0 12.4161 0.848121 13.2642 1.8906 13.2642H12.1094C13.1519 13.2642 14 12.4161 14 11.3736V4.29879C14 3.43341 13.4153 2.70251 12.6204 2.47895ZM1.8906 1.6188H10.7362C11.2168 1.6188 11.6196 1.9572 11.7195 2.40821H1.8906C1.52046 2.40821 1.1751 2.51555 0.883201 2.70014V2.6262C0.883201 2.07072 1.33512 1.6188 1.8906 1.6188ZM12.1094 12.381H1.8906C1.33512 12.381 0.883201 11.9291 0.883201 11.3736V4.29879C0.883201 3.74331 1.33512 3.29139 1.8906 3.29139H12.1094C12.6649 3.29139 13.1168 3.74331 13.1168 4.29879V5.83992H10.3009C9.18504 5.83992 8.27722 6.74776 8.27722 7.86363C8.27722 8.9795 9.18507 9.88735 10.3009 9.88735H13.1168V11.3736C13.1168 11.9291 12.6649 12.381 12.1094 12.381ZM13.1168 9.00415H10.3009C9.67204 9.00415 9.16042 8.49253 9.16042 7.86363C9.16042 7.23474 9.67204 6.72312 10.3009 6.72312H13.1168V9.00415Z" fill="black"/>
<path d="M10.4649 8.35702C10.7188 8.35702 10.9246 8.15118 10.9246 7.89726C10.9246 7.64334 10.7188 7.4375 10.4649 7.4375C10.211 7.4375 10.0051 7.64334 10.0051 7.89726C10.0051 8.15118 10.211 8.35702 10.4649 8.35702Z" fill="black"/>
</svg>
