<svg width="50" height="50" viewBox="0 0 50 50" fill="none" xmlns="http://www.w3.org/2000/svg">
<path d="M11.2054 21.1862H19.2092C20.092 21.1862 20.81 20.4682 20.81 19.5854H24.8119C25.2529 19.5854 25.6123 19.944 25.6123 20.3858V21.1862C24.7295 21.1862 24.0115 21.9041 24.0115 22.7869V24.3877C24.0115 25.2705 24.7295 25.9885 25.6123 25.9885H33.6161C34.499 25.9885 35.2169 25.2705 35.2169 24.3877V22.7869C35.2169 21.9041 34.499 21.1862 33.6161 21.1862V20.3858C33.6161 17.7093 32.4116 15.3114 30.5203 13.6954C32.8502 8.92989 36.9081 4.09557 38.4184 2.37634C40.5875 4.84713 48.0231 13.7434 48.0231 19.5854C48.0231 24.8815 43.7146 29.19 38.4184 29.19C37.4084 29.19 36.4143 29.0347 35.4634 28.7274L34.9712 30.2497C36.0813 30.6083 37.2411 30.7908 38.4184 30.7908C44.5974 30.7908 49.6238 25.7644 49.6238 19.5854C49.6238 12.153 39.4381 1.09893 39.0051 0.631503L38.4184 0L37.8318 0.631503C37.5932 0.887626 32.2075 6.72963 29.1972 12.7621C27.8651 11.989 26.3522 11.5817 24.8119 11.5816H20.81C20.81 10.6987 20.092 9.98079 19.2092 9.98079V8.38002C19.2092 7.4972 18.4913 6.77925 17.6085 6.77925V5.17849H20.81C21.6928 5.17849 22.4108 4.46054 22.4108 3.57772V1.97695C22.4108 1.09413 21.6928 0.376181 20.81 0.376181H9.60461C8.72179 0.376181 8.00384 1.09413 8.00384 1.97695V3.57772C8.00384 4.46054 8.72179 5.17849 9.60461 5.17849H12.8061V6.77925C11.9233 6.77925 11.2054 7.4972 11.2054 8.38002V9.98079C10.3226 9.98079 9.60461 10.6987 9.60461 11.5816H0V19.5854H9.60461C9.60461 20.4674 10.3226 21.1862 11.2054 21.1862ZM33.6169 24.3877H25.6123V22.7869H33.6161L33.6169 24.3877ZM20.81 13.1823H24.8119C28.7834 13.1823 32.0154 16.4135 32.0154 20.3858V21.1862H27.2131V20.3858C27.2131 19.062 26.1357 17.9846 24.8119 17.9846H20.81V13.1823ZM17.4612 1.97695H20.81L20.8108 3.57772H17.4604C17.5508 3.3256 17.6085 3.05907 17.6085 2.77733C17.6085 2.4956 17.5508 2.22827 17.4612 1.97695ZM15.2073 1.97695C15.3658 1.97679 15.5208 2.02367 15.6527 2.11164C15.7846 2.19961 15.8874 2.32473 15.9481 2.47116C16.0089 2.61759 16.0248 2.77875 15.9939 2.93424C15.963 3.08973 15.8867 3.23256 15.7746 3.34466C15.6625 3.45675 15.5197 3.53307 15.3642 3.56396C15.2087 3.59485 15.0476 3.57892 14.9011 3.51818C14.7547 3.45744 14.6296 3.35463 14.5416 3.22275C14.4536 3.09087 14.4068 2.93586 14.4069 2.77733C14.4069 2.33552 14.7663 1.97695 15.2073 1.97695ZM14.4069 5.17849H16.0077V6.77925H14.4069V5.17849ZM9.60461 3.57772V1.97695H12.9534C12.8638 2.22827 12.8061 2.4948 12.8061 2.77733C12.8061 3.05987 12.8638 3.3264 12.9534 3.57772H9.60461ZM12.8061 8.38002H17.6085V9.98079H12.8061V8.38002ZM11.2054 11.5816H19.2092L19.21 19.5854H11.2054V11.5816ZM1.60077 13.1823H9.60461V17.9846H1.60077V13.1823Z" fill="black"/>
<path d="M3.20166 14.7832H8.00397V16.384H3.20166V14.7832ZM25.6124 27.5894H27.2132V30.7909H25.6124V27.5894ZM45.6396 16.0942L44.1469 16.6729C44.3558 17.2108 44.5175 17.7158 44.6295 18.1744L46.1847 17.7942C46.0566 17.2692 45.8725 16.6969 45.6396 16.0942ZM38.4186 25.9886V27.5894C42.8319 27.5894 46.4224 23.9988 46.4224 19.5855H44.8216C44.8216 23.116 41.9491 25.9886 38.4186 25.9886Z" fill="black"/>
<path d="M42.5308 33.9924C40.4498 33.9924 39.3861 34.9521 38.4481 35.7997C37.5844 36.5793 36.9033 37.194 35.4378 37.194C34.655 37.194 34.098 37.0147 33.6161 36.7321V27.5894H32.0154V35.4323C31.5632 35.0417 31.0557 34.6631 30.4146 34.391V27.5894H28.8138V34.0196C28.6618 34.0084 28.5145 33.9924 28.3496 33.9924C26.2694 33.9924 25.2057 34.9521 24.2676 35.7997C23.4048 36.5793 22.7237 37.194 21.259 37.194C19.7951 37.194 19.114 36.5785 18.252 35.7997C17.3147 34.9521 16.251 33.9924 14.1716 33.9924C12.0922 33.9924 11.0293 34.9521 10.092 35.7997C9.23003 36.5793 8.5489 37.194 7.0858 37.194C5.6227 37.194 4.94157 36.5785 4.07956 35.7997C3.14231 34.9521 2.0794 33.9924 0 33.9924V35.5932C1.4639 35.5932 2.14423 36.2087 3.00624 36.9875C3.94349 37.8351 5.0064 38.7947 7.0858 38.7947C9.1652 38.7947 10.2281 37.8351 11.1654 36.9875C12.0274 36.2079 12.7085 35.5932 14.1716 35.5932C15.6355 35.5932 16.3166 36.2087 17.1786 36.9875C18.0687 37.7919 19.0828 38.6875 20.9621 38.7771C20.8692 39.0332 20.81 39.3062 20.81 39.5951C20.81 40.919 21.8873 41.9963 23.2111 41.9963C24.535 41.9963 25.6123 40.919 25.6123 39.5951C25.6117 39.2104 25.5185 38.8314 25.3406 38.4902C25.1627 38.1491 24.9053 37.8557 24.5902 37.635C24.8583 37.4237 25.1041 37.202 25.3418 36.9875C26.2046 36.2079 26.8857 35.5932 28.3504 35.5932C28.5153 35.5932 28.6674 35.6036 28.8146 35.618V38.7947H30.4154V36.2055C30.738 36.4272 31.0357 36.6961 31.3583 36.9875C31.5672 37.1764 31.7849 37.37 32.0162 37.5581V43.597H33.6169V38.4906C34.1292 38.6755 34.7207 38.7947 35.4386 38.7947C35.4818 38.7947 35.5179 38.7883 35.5603 38.7875C35.3348 39.2937 35.2178 39.8414 35.2169 40.3955C35.2169 42.6022 37.0122 44.3974 39.2188 44.3974C41.4255 44.3974 43.2207 42.6022 43.2207 40.3955C43.2207 38.4874 41.8761 36.8922 40.0856 36.4944C40.7292 35.9654 41.3943 35.5932 42.5308 35.5932C43.9963 35.5932 44.6774 36.2087 45.5411 36.9875C46.4791 37.8351 47.5428 38.7947 49.6238 38.7947V37.194C48.1583 37.194 47.4764 36.5785 46.6136 35.7997C45.6755 34.9521 44.6118 33.9924 42.5308 33.9924ZM23.2111 40.3955C23.0051 40.3863 22.8105 40.2979 22.6679 40.1488C22.5253 39.9997 22.4458 39.8014 22.4458 39.5951C22.4458 39.3888 22.5253 39.1905 22.6679 39.0414C22.8105 38.8923 23.0051 38.804 23.2111 38.7947C23.4172 38.804 23.6118 38.8923 23.7544 39.0414C23.897 39.1905 23.9765 39.3888 23.9765 39.5951C23.9765 39.8014 23.897 39.9997 23.7544 40.1488C23.6118 40.2979 23.4172 40.3863 23.2111 40.3955ZM41.62 40.3955C41.62 41.7193 40.5427 42.7967 39.2188 42.7967C37.895 42.7967 36.8177 41.7193 36.8177 40.3955C36.8177 39.0717 37.895 37.9943 39.2188 37.9943C40.5427 37.9943 41.62 39.0709 41.62 40.3955ZM29.6142 45.1978C28.2904 45.1978 27.2131 46.2751 27.2131 47.599C27.2131 48.9228 28.2904 50.0001 29.6142 50.0001C30.9381 50.0001 32.0154 48.9228 32.0154 47.599C32.0154 46.2751 30.9381 45.1978 29.6142 45.1978ZM29.6142 48.3993C29.4081 48.3901 29.2135 48.3018 29.071 48.1527C28.9284 48.0036 28.8488 47.8052 28.8488 47.599C28.8488 47.3927 28.9284 47.1943 29.071 47.0452C29.2135 46.8961 29.4081 46.8078 29.6142 46.7986C29.8203 46.8078 30.0149 46.8961 30.1575 47.0452C30.3 47.1943 30.3796 47.3927 30.3796 47.599C30.3796 47.8052 30.3 48.0036 30.1575 48.1527C30.0149 48.3018 29.8203 48.3901 29.6142 48.3993Z" fill="black"/>
</svg>
